<mxfile host="app.diagrams.net" modified="2023-11-22T08:17:17.907Z" agent="Mozilla/5.0 (Windows NT 10.0; Win64; x64) AppleWebKit/537.36 (KHTML, like Gecko) Chrome/119.0.0.0 Safari/537.36" etag="ACJDhamZWegntjTU3fbF" version="22.1.3" type="github">
  <diagram name="第 1 页" id="uvZktWqTAINm7jkt-g-U">
    <mxGraphModel dx="1236" dy="629" grid="1" gridSize="10" guides="1" tooltips="1" connect="1" arrows="1" fold="1" page="1" pageScale="1" pageWidth="827" pageHeight="1169" math="0" shadow="0">
      <root>
        <mxCell id="0" />
        <mxCell id="1" parent="0" />
        <mxCell id="CVMzIMqjBqlr0pFYdlRC-55" value="" style="rounded=0;whiteSpace=wrap;html=1;" vertex="1" parent="1">
          <mxGeometry x="50" y="10" width="960" height="310" as="geometry" />
        </mxCell>
        <mxCell id="CVMzIMqjBqlr0pFYdlRC-15" value="" style="ellipse;whiteSpace=wrap;html=1;" vertex="1" parent="1">
          <mxGeometry x="370" y="17.5" width="130" height="57.5" as="geometry" />
        </mxCell>
        <mxCell id="CVMzIMqjBqlr0pFYdlRC-1" value="" style="shape=image;verticalLabelPosition=bottom;labelBackgroundColor=default;verticalAlign=top;aspect=fixed;imageAspect=0;image=data:image/png,iVBORw0KGgoAAAANSUhEUgAAAKEAAABpCAYAAABS6kNvAAAgAElEQVR4Ae19B1eVSbb2/Tl3ffcPzFqzZt3pa0/PrJ47d6a77WD3dFZbbe1WwZxFEQQVEBBEAcEABkwoSlTMiOQgkpQcDuHAyen51lN1ivNyOKQDBrrPyyrqjVW7dj21a9euXXX+A4EjwIG3zIH/eMv5B7IPcAABEAZA8NY5EADhW6+CAAEBEAYw8NY5EADhW6+CAAEBEAYw8NY5EADhW6+CAAGTgtDlcsHhcMBiscBgMMBoNM4qmEwmMMz2u8D7s+Pzm+KXqkvigbggPubrmBSEdrtdAKi9vR3l5eWoqamZNNTW1kKFuro6MNTX14ugrgOx5MtC5cPz589FHbe2tgqhRCDO1+EThCoDSkCC7/r168jPz580FBQUgKGwsFCEoqIiaIO6H4glfxYiH1i/V69exb179zAwMDBf+BPp+AShErUE4dOnT5GVlYWXL19OGl69egWGtrY2UHIydHR0iKCuA7Hky0LlQ2NjI27duoW8vDz09fW9fhCqHAjC0tJS3LhxY0rdTul/jM1mswjUHRjUdSCWfFmofGDdUgrevn1bgFAJKoWVucQ+JaFKcGRkRICQLcBqtYJ6Irtqp9MpAs+11+o+YxIZCL8tHjx+/FioXTqdbgwDvupc4Wem8ZQgHB4eRklJCXJycoRUIwi9W8B0QJspIYH33m0OUAgRhHfv3hU6IcGnhJA25v3ZHgEQzpZjv9P3qVpRIN25cwfd3d2iZ9SCT52rXnA2bJozCLWZ+ZKK2ueB84XLAZvNJgapVM2qq6vFoLO/vx/awJ6T780WiAEQLlxcvFHKKekoCS9evIjc3Fw8ePBAmOw4WlaB3XVvb++sgTivIHyjXAlk9kY5QOlGkNFWSLNdQ0MDqqqqROBkRnFxsdAXaczWDmBn0jsGQPhGq3LhZkZJSBCyOybQaDnR6/VgF0zpV1lZifv376OpqWkMhPxGdc1aMHpzIQBCb44Ern1ygNKNIOTMidZYTaCNjo6KqVraEQlC3lMhAEKf7Azc9IcDBOGTJ0/EdKx22o5go1TkYIUj5wAI/eHuW/uGXije4a0RM23GBBslIX0Iurq6RDfLj9jNcjaFOiK7Y07vKSnIWCsJea6utRkGumMtN97YuTf4vK/fGCEzzmgmIKQhu6KiQnjZ0K7IbppSkiClsZvXasJDqyMGQDjjapivFxXgOLPgK/D5u3fMBIQctHD0TL2R55xnpvmGXkOPHj0S0pJg1AKQ5wEQvvH6/u2CkIBjd00TDkHH7pt6JM03nPrlNR04AiB846DzzvC3C0KOjuncPDQ0JAIHMIODg2hpaRHS8OHDh8IbS+mFCowBSeiNkdd+PXsQsrLUwVPttbr/uuOZdMcEGW2InLqj7qdi2hEJUEpIuge+uyBUdaPi183Vt5a+KqAvfZD3PIBTJGpBZ7c7YbPa1SPPANtzx/c97XM/zmcCQk7lqRkTLc09PT1CEvI5Qeh9vCOSUDRvNnF38Cbzt3Q9exCy9A6HHU4nF5+54LBrgCqSk9eau/POMH9BSIlIj3vqijThcIaFklB7zDMIBUe06WtsYV63xy75jbdU8DBVpeiJ1dlYAm/wROXN2N9DpeFdZu21O30VuSYuKhqjQDRcWan8L+/z//igrvyl2l8QUiJSEnJwQklINzBO99Fco0w48whCFpNsYFchmSILrO5PVny+SybzOwae85uJ0HTCBRfk/8lSe733SasKksbZ58fvFE9UWr7iMTaIPHUDvcKLpaSkFJ1dPW4OubnkIt9cgnNMiVzy0Cn5pXKdPb3yC39BSKlH4zYl4c2bN1FWVibmmTnXrMI8gVBbaBtcsIowNNyHJyUPUHRHrsQrKLiDgvw7KCoqRndXDyxmE1wuG6CCYB67ZE/LZ8q8ksyVrHaOf8XNVwlQWcGYIPIV89kyvbsDPlP3vZ85PaS4qXDAKRoLKQNsdlI28VCVPjEmnVpanTCbjejq6kB3d4c4d2rKL1N2ofVlI9LSTiEmOhb5BUWw2uT8rCivyya6a6tL8slDjcqJTVdxxvOUZw4uxZjwN/4d8d4MZkx86YTkJxe90USjPHA4QKG5hoHfzAMIFZtZTAYrnDDB7tSjqaUa4REhWL1mJX799Vds3rQNWzbvwNatO3Hl8jW8bG2F1WIAnFbAaXGXXKUnL3lldSoZKQFAlUI0fr7CF9yHy+UQkpKXLDyBxaAO3lMjNu9n1F3UN+p9kc44EPKOAw7Yxl4xW+2q6YzdY46q0nk+Pqgql284nXb09nUjL/+2CN09nbDZFC+kisw8e3o7cOHieYSEhOJU2mmMGExiBCqaqM0Ei9UCs5Npaw/Zb6iaYex92OmmL6QoJakLTvLMKxV+468kJJ87OzuF4Zp+iFy1SVCqFZqc7ptHECp5RSlohMOlR1dPE44lRGHFyqXYvn07TqWeRmbGJZw6dQZbNm/D7Vs5GNB1Aw4zbCY9Rob60Nn+EkMD/dANDGB41ACL3QWDxQmj1Y4BvQ69uk4MDRtgHAEG+k1ob+vE4KAOw/pBGIyjQiKQaZwqYmGpf3DqiHoJR24sPG1XCnSKwbxHuxY9ROgtTFuX2WzV1Bmr0IERwyB6+jsxMDwAE3enMFnQ06tDV08/BoZGQFBSODrcUkkLAHmuFAonbHYr9CNDqK6pRHT0ERw6FIGHD++jpaUJHR1d6OsdgslogcNphcNpQlV1BVJSUnEqLR2vOjrR09uDzrZW9He9gsFoEE1DAc1mNUM3oEN3Xy+6+3tF3Kvrl0DTlEqUXwNCAnE+QciGTRBy1oQmHNYFeU9QM7B+XgMIKSVMcLhGMGroRW7edRyM2I9Lly6is6MHBoMFuv5hHD4UhcSEeDQ8r4LFNIzqihJEhu/DX//yHv721/fxr4/+hZADYSirroXFCVicLhTeK8DqtcsRvGEz4mPTsXVzCN57bxH++7//hKDgdcjJuYGBAR36+npx8OBBfPTRRzh37hwiIyPx6aefYtGiRfjqq6+QkJAgAEomkCG0Y3GqacmSJXjvvffEe19++SVSU0/BbLK6u28H2tqbkHD8KJZ8/Sm+X/odbuTkIDe/ED8sXY6PF3+GvftCUVJaNgUAKSE9IBwc0qGwKB9BQevw//7rP0VYtOjPeP8v7+H99/+C9es2obmpRUDG6TLjRWM9jh9PQtCGjdi4ZSsWvb8I//jwAxwO34cnJY+h04/CJqS/A81NDdgXug+ffP4ZPvjwb/jnJx8jeNNGPCsvh9HMnsoBK215BMNrBCF5TGFADxsuH+a0nfbg4GSeQUhpKEHI7tjhHEF+wQ1ERIbi6tUr0PUPwW4DhocMSEk+hfi4o6goe4yXLc9xMTMd+/ZsR+6tbBTk30bm+Uzs2R+K7btDUPyoFKMWK5rbGpF29gRWrPwZSz5fht27wnH7dh5u5mTj0OEIHDiwH9euXxWFZoFXrVqFr7/+Glu2bMHJkydx7do1nD17Flu3bhVApHWf0o+mg3379iEzM1PoLtxxIjU1FREHI3E0Jk50IRarEcP6PjxvrEZq+gkBwsWffYYvvvw3klPTcP1GDm7l5qOyumbGIDRbTejobENu3i1s2bIJmzdvwNmzabiZcw25uXkofVqJoSE97A4z7A4DauuqsGHDBvzPovexK2QfrmVfx5VLmdixeT2SThxHfXMrRoxG9PR0IjExDtFHo5GZdRG5hQXIun4Vh2OisGnrFtx7+ACD+mE4XE4ZXiMItZKQU3mUfFoViZJxnkFoh9NlgtWuh80xDMAsQBgWvg8Xzl9AZ0cvzCY7ujr7sCF4E86kp6GhvgoP7xchLiYS2Vcvob+3E4O6PtF15hUW4VhSMhJPpqOrTwe9cQhF925hfdAG/LxyE+4Xl8JgMKK/nyPHx0hKSkRKykmxBw67VIJv2bJlOH36tJg6YpfLHRAuXLiAuLg44Y7O0dr58+cRFRUl8uR37Lq5l87ly1eExCYgjKZR2OxGGC16FN3Lx/rgdVi6/CdkXshC66t29A8MoadPh4EhVu5UOiF1RNXluWCzW9Dc0oiTJ5NwLCEOFZXPoBvowfCwHvphE2w2qebYHUbU1lZh/75QrFsfjJJnZRgYHEB/dweiIkIRERGBOw+foG9gCM3NjQgOWofrN66j6WUregd0aO/qxIPHj7A/7ADOZJxDY0szbA6pz74JSchtYTgQobH6tYPQ7jTCYh2G1T4kdMOCohz8unY1li//CXt2H8DhQ7EI3R8hdMLHjx6it6cDV7IysfS7r7B9ywZEH4lEdNQRHDp8GHtC9uHXdRuwfsN2NDS/xKhZj/uPCxF6IAwxUSeh65fWd4fDhqGhAWRlXUR8fJwwZdAoumvXLoSGho51Ayw8BybclCg5OVnsLEGpFxYWhh9++AHh4eECjEeOHBHfBQdvxC9r1uHkiWQMDPTDZjfBCRtKnj1CaPgBJCadRG/fIGw0ILukHqjVB8cPErSdEM/lcIXDgc6udqSlp+LUqWQ0NTfAajMKw7TNCrdhmmA1oqa2GvFxCTh27DhGDEaZoMOG1MR4HIo8hLw7D9DR3YeSJ0/w9w//hrVB6xAaEY6II4cQHhmBXXv24Muv/42Q/fvw9FkpjBazoOJNgJDdMRdKKQcGxY3XIgldMMPmGIXFNgyzdQhFd25j5crlWPzJYixbugq//hKMtb8GI+fmbej6+zCqH8Sl82ex+F//iy8//wRrfl6BX9esFqPpVavXYOXPvyIkNBJNrW0YMelx71EhDh+JwomksxjQcSAi1f3h4UEBwmPH4sUcJQcWBCElHL1+qYtQ/2NMKZeUlCQ2euIWJyEhIfjwww/x448/YvVqmfeKFStEw+GI/sL5i2MgdMGO0vIniIk7Krpfo9kKi80hBiOkhGC0OZxjo2PF7ImxCw6nXUjCzs52pJ5KRnLKCTS3vIDZPCoqSz9sxPCQXgyICMKq6kokHT+BlNQ0jBpMMkm7BWlJCYiJjsHdB0/Q3duPx48e4f1F7+GTTxdj2YqfsGL1z1i+coU4/+qbr3EkJhqV1VUwmKi7k1Y1ilb66kRqqdtRkk3l1OrLRKPVCd8QCNl1UMSbBQj1I724mXMVoaF7RRfI7thktMFqdcJqscNus8EwMoj7dwtx9EgEsq9cQndHG4YGB8TotLO7BzX1L1DyrAr9Q3qY7WY8eHwX27bvFIOSyop69PX1gwp+bW01zp07g8zMDLx69VLoHuyOg4KChMSjcsztK9jdEngcnHC0RkBSGkZHR4uRM3VEtk6C+NWrNlRX1aKurh5WqwlOlxWjxmEU3s1HeGQ4zl+8CN0gu+F+DI+MCvBRElpsNB5Pd7hgc1hhtZlBs8zZs6eFXvvs2RN0d7cLD+UHD56gpOSpsKVarKN48uQhYmNjcTI5Bf0Dg3A6HBjq78Hx2GhEHDyI3II7gp7uri7s2L4VObdy8KqjHQPDQ9ANDoCjY0rA8qpKcW6ho4GTZi+pPjBW5iRv6t8BEN6cdBsQSbaQAaLFyuLYYbHq0afrQHTMIfzw47fYunUL0tPPoiD/Lvr7BsWokwW120zo7nyF3JvXse6X1TiTlopLFy/g/IULOH7iJELDInDwUDSaWl/BaDGi+MEd/LRiFf76wb9Et56ZeR7Xrl1B4vEEJCUdx717xcJcQd1jx44d+Pjjj7F27Voh+a5cuSIGJ0ePHgXPe3t7hH7CJYu7d+/C8ePHkZFxDleuXEbW5SwkJiZi754QoVMODPYLW93jJ/dx6MhB/LD0e+zeuxfnMjJx4WIW7j98jPaOLpgtViENvSvR17XDRVOFTUjZq1cvY8OG9YiPj8HFixmIijqC5ctXikGUTteD9o4WZGScwbp167Bz5y6UVVQKS0DFs6fYvikIK1b8hLjEE6ipew5dfz/OZ2Zgx84diDsWj8tXryDrymWcy8zA9p07EBsfh5q6OlhspJVy0AM+de5N71sE4RBKnj4Rpg+LxQy73QaXS7UXkkmSPe3I7qCRVU4hmcx6NDbVIWTfTqxYuQwrV60EdayYmDi0trZBPzwiLLEOhxVGgx4vW17gTHoqdu3Yhg3B67E+KAibtmzF0bgEPCuvgtlqg8liwsNH9xERcRgbgrchZG8YVq5YhbXr1goQXb58WYyMqfvR3rd7924QcNQLN23ahI0bN4o4Pj4elZUV0On6hG2R+t6jRw+wbt1aBAWtR3BwkAjspi9cuIT29g5hQG54UYvE43H4de3PWLHqJ6z5ZQ3WBwWLciUmJqGsrEKA0LsCp7t2OG1obW3G2XOnsWfPDmzaFIQdO7YjNTVNlEc/MoDKqlIcPHhAqAs7d+3ChUuX0NHRjuyrl7F7+xZQfdgXFoHHT0thtljQ09ON9PQ07Ny1A8EbghG0IRjBGzciNi4Opc+ewWhyd+deAJyMVo5y6aBKUxbnf8ljBt7nbrHcRPP1dMf6QZQ8fSxBaDXB7qAhml2uai/jQegS0xjyucNhwbBeh7r6KlRWlaG8ogyVFVVoamqByWSB3cYtZ7mpDn3PLLCYR9Hb3YEXz+tQWV6GiopKVFRV4/mLRgwOj0iblt2GsrJSsMJPJJ1CTc1zPH36TGzkyQU2ZA6N1Dw4MNm7d68Y+VIX4UJtrn/gfCWdLIf1Q7BYZJlIw+ioHhWVZSgvfyZCWblMt6O9UzCZNOr1A2hqfo7yiqcor3iGiopyQWdlZTVamlvFiJYVM9PD6XQIgzVnSDh1x2m7hhd1qK6pQH19LTo6OmGmTc9hhn5Eh4aGOlHWpuYmtHd2ilmSnq52NL+oF86kjS2vMKSXerLJZERHZztq66pRVlGGZxXlKK+swKu2NjFCpX48m2PBgNADTikdqcRTj5J6Ilde0UruhMPuBP3ihHvSGHDdEpXKupC69rERpxp5Nre0ICUlBWtWcwpwO/LzitDS0uo2Jnvmf9kVc9HNt99+K6RfWlqa2PKYNioeQqKPDR08ktzpIr2aoOh1sNvkrAVnLyyiTGxwoldwe5/NpkI971KS0PmT6dK+SloIYtmb8D3yTF7zuWzgNPDIGV++z3uM5SHEgtMJu4N7wpBGDprsouul/kfwsaGweyWwZnosQBCSFRTXHP3RDECmci6XIGSFSiA6nNI44GG+Cy6HHVYz50I5By0P5SNQ8vQpDh8+jFWrVmPd2g04cSIFVVXVwuxCJjGQwRxcZGRkCGM1R7uUiNnZ2WJgwhRppvEcpJNSWdEiaRf0Q25/JoHhEOBTjWpcxbNroleF34ekgQ2A6TpddAIhuNRBTshnpIV8s9ptfNMNQMYEpqSUjUPymuWUNkmzzQqz1SqsA7OR1mMULJTueByYXA7YbGaYzKNi7pMtVrJJFUvGok3Ta0TjOeKwcwRthd3BFu0a07NaX74UC2jy8wtRWHBXdMW6/gFhU7NayGC5IxQlIbtf2qZoUqAew723OUVEoFIKyOoiDUJ2uCtTW/H0MHEIOjwUEwgMSvpInYjpzVayeNL0nNFwzfSlxB3fUCSdHvqoH8vDA36CUB2isTtJqzysNhtGvQzF6tlM4gUkCbUtU56PSRkhbaSk0haarVK1XA+I3V0rFd8ZdnfKKZvex0oiyrSZ/sQgK1VJPbrlOOASXaKHOk86UsZI6aQA6Kly3+l70pn6TNGgYqar8uA9ec3eRKoAbqntlt6i8YpzaTAX/OJXNL1oAl22POXx8GNq2jxPfyMglABkhU08FLM9z8ZXrHRp8txT15qYOGIQoPUwWQKceWuDJx8BRvGhXfo1jikB0h1MVhy/lZU/HiAyHQ9dnnwnlnGqO0xHBS0IeS6Dyt83ECVvCUDZaD10CNcsH41QS/NUlKlnCxyE4yufhfd9qEqQT7VM8py7bftjTHUDTwFwHAi1+U48l5XOvJgvP7QDTjMcdhPsHChw1oPSgzMKbgASCB4QEhySZg99nsr3Xcap7rrpEFJQdfme/CQIlTSUAw55T9GoYg8NBKAKikZ1rWJqjDM5fgMg9DCGzJjJoZjmiSUACRipR6o0vYDoTl5KsPFdl0easHIVHYwJKDtcThPMpiEYDCNiRoddGB2d+J9A5MBBdskeCSXoEVJW0iOA63PUyXxUnr44oOggbdQHxwNxDISgrVaCUNIknVLZWBQoKfUVyIQm7m602ntyGCY46YuYCfcWNAgV4wkmCYypKsJTdqXsqztksASLU5gzpEmD5hbelwetGdQJedD25xQ6Hq8JIJs0v1DxpxlGgJm4oOeBA06bGU7bCJ6V3kde7m00Nb10m4gc8n1+45QzHHY756GtIj3mxUpXhwKhaDxj/jIKYFrwKj5on/GcgWXylFelzQbAciieEng8hHe0mz+EFQdUdv4knJiW09AmOMhUPEGaemSKKneVnzZe0CAk8eqYKRD5Hs0ochSrvlaSgSNm+teZxQO7Zp6WIJQODQQnR9ccbZK1BI8FDpcVDtjln7CfOcT8q9Nqg91sgM08iJTkOGzfthUFhfcECO00K3F6zSlByBEsjdwWziWPjT6Zx/hDgFBIILeEGutmWQ5PWQg2acJSoGM65Jn2WqUt0xq7cvcqdJiQblmSDqvDJswxBpMRNs0iGQltKf0UEH8XIKTFX3sQXNyxyftQAOUzgo/X8qBew9ZPFsrKc4FSjUZw9Y4mNXGL+pxNANXhlIB1OMxwiPUv7FK5VEna2mzcoIc+e04rbOYB5N7OwqlTKSgrr4WNa1sIVg0IlS1vjLYxIGpoIGVjeqsWhKoMLA+DXBAmy0WTkCwT5ZQ0jrO88hB6qQCn+3rM1CSvbfQQcvsHUgKarRZY2BBJP5eduRyw0AZLA7xGEvKckFfBB0dFBgtWErILVV0GK4UApD+Z1lhMC74CnlZqEoh8RglEADpdFrGCj2steK4qTlYBJZ9L6HEWi1XMQHikC7+XaTC2wwKrywKb6JIljglCu3kEdusAnHZO5xlhtSnYOz0gdOuEslxMU0p5T4NR1GhBSF3Ro89KWgg2Smaj8Ji22Q0wmkZE9261msfWyTA1zu5w7QylLrtY4ZLvXqPBRihml6zkDRsMxBy7ooIANNstMNotMDlsognSDK40WwVGBUDGCx6EUjFW3Yhk/JMnj3Hp0iXhREovFXox032K7lIEHV2m1K7wnAAn+OgBzTleerpcunQBjU3PYbGMgt7FLlhgNA2jprZCuD9x4c+Z0+dw40YOuCZXORsQQpSCuoEu5Ny6ihMn43EmIxWXsy8iJ/8GauprMGIYFfVlNZjQUFuBjDMJSE+Lxe3bN9DU3A6jxQabkoRunbCjow13i4uEs0Hi8WNiGSZXkdFNjIdqPB5JqAZQrF4G8oeNyITu3hbcvXcLl7LO4eGje3j46IFYYkCHW+6S/+zZM4yM6EFgdnV3IjcvD9k3c1D//AVsdgf6+3pRlH8bF86mi71euvqHhMtbQUGhWJlX/KAYeXcKkJF1ASfSU5GeeQ6tHe0wWs3sS9xg/I1JQtFa7Rbh6MBuy2wxITf3tnCj4mIjerMw0CeOTgR0NmDlcUsxTq3Rs5lSkdNu9PU7dOgQNmwIxqWsC9CPDArPZvrVVVWXIfXUCYSG7kPEwQgcDI8UywUiI47g/r37MBoNosOhm/ylrAxEHjqAsPAQRB4Ow74De7B67SqcyTiD9s6OMRDWVjxF8vFD2B8SjN27tqPozkOYreyKCRrKPAd6e7txOzdHuOEfPhwp1rRwhVxIyF4xTah2KeX7E0EoknFLT+qzI2jvqsf5S8nYuOkXbN68EZERh3Do0GHhqs+FWvT2oVs8gd3W3oZTaWk4EBaGK9eyYbY5xQKt7MvnsWX9arGY62F5HTp6dTifmYlf16zC5q2bsPfAPoQfiURkTBTCDkciNuEYiu4Vi9V3qmuW4kLqikpHVNSqeMF0xxyxckBA5Z3BZDLgxYsG4V5PKcfps/T0dOETR+lHhwJOpdG7hQynqxW9XwhO7l/Cd+lWlZx8An193aIjGRkZROb5M9i1exsyMs+iuPge8vIKER0VixNJqSgtLROeJ9Sp6p/XYMPGdYiJOYy8/BzczruJc+dPY+/+PbiafQ2d3d2SxzYHettbUVaSj8yzCdiyORg3bxXK0bG7y2WjKi0tQfrpUzh9Jg0FBXlipdz9+8VITj4pVvdxcTedZnn4BKHo6/iPrvlDGDa8ROHdLGzeuhZLlnyB6OhY3Mq5LaQaHW3phsaGyWlINtabOTkin7TTZ2G0ucT6mvqKEuzfug7794ci/3EVugdH8eTxQ/yyajm++fbfCD8Uieu3buLOg3vIycvFoagjSEg6LrxqRk1GUTrVLavYl+2QDWFBuHJxMKAUd7p9GU0GtLW9Et0KtwbjPO6pU6fEskt2YZR4nCPmwiLu6rlz507BbKVjURoejDgoul2uIKM8Ghrux8nkRKxdtxrp6adQWFiEvLwCXLuajZInz9DfrxPmGXpC19VVYfny73EgLESsYLt56zquZl/G9ZvX0NjShFGje4couuQbh+Gw9KGu5gHCwkJwO7dIdp5U6G1mMUK+ciULYWGhiI+PFe5tBYV5ePDgHtJPp4tVcFxsRAdZ6ryTg5AQJQgH4UA/GpoeI+F4FNavD8KD+08wOCg3DGJj5LYZdMBQvQbnw9lVn8k4D4NVGtNhGEDa0XDExBxFYWkDBoyymw4P3YOt2zbjVkE+dMNDMFgtGDaMoKj4Lg5HHUFeQYHwtqYeqMCn4gUNQkpCjux4EIwvX9L1Klkw8rPPPgMD1//+8Y9/FFtCUGpwoMK9Sri9LNeEUEdUIOQSwchDkcg8nwGdrld45BiMw7hzNx/bd2zGJ598hE8++QRLlnyFbdt2Ii+3QACb0piDi6FhHSIiDuDfX3+BxZ/+C18sWYwfl3+P+MRYAUJ6FovD7oTFMAiHtR/P6x9hf+hu3MjJg93pAs0dVuFY4BQr4pZ8+Tk++OB9/POf/8CSJZ/ju+++wWeffSrWOLMRcR2GT189pRKKDAnCAZPw5PsAABE9SURBVFid3Xje+BBnzp1EfHwCenuGYDLJ7XT5GnXCNWvWCAlENYU9Bpeunsu8CL1ZLo+AaRCpR/YhPOwgbjysRb/BhZ7ubkQfDkdaWgrqGhtgsJphtFlgslnQ1NqCw1FRuHn7Fnr6eoUJR4FPxe8WCIc1ntXW6T2rheZEG5V7b5XjxxPEskt2LWzFXOVGP7+VK1eKn6YiCNn10gua97lLAxeiU/9gRdIL5kDYAZw9d0Z0xxaLQXiYmEwj6O3tRGOj/FWh2po6xMTEilDypESMqOmEyhFnV3cbXr5qwovGOpSVlyCv4BYOHAxF5sVMtHdInZAV7rKZYLPoUFFWjJCQXbiefQsGowmjRq4dscJsMYrlpAcjwkSjeFpaIhxbK6sqUFtXg/r6OnR1d0F6oHPkrFAn+mABPc/Qk2arQdhcfaipv4eExCiEHTiIoUEjrBbp58fysyfg2mnqmmycXEtNf8qM8xehGx6F2WSCZbAb6XGROHI4Cjn3K9Crt6C7uwuRYftxNDYa1fV1sNBp12yC3mhAaXmZkIS5Bfno6e+DhS5hmuk9nr9jIFQ/NatdYyLNEpKrovomMJwVwUqhPkNdj6Nh6n5cbM4Byh/+8AfQFZ/dMO8TeFTAuSiJrZ/g5LYRP/30E95/fxGOHYtDZ2cbrDYTamoqkJaeIvTBnt5uUTlDg0NITz+DozGxYiE7VWyjcQQJiXE4c/YU6uurQRf5nr5OlFeWYv+BEKSkJuNFYyNcwq2LILTAPDqA8tJHCN23Dzdv5sJk5jYfBiEJKeUrK8tFxR4/kYiGxucYHB7EkH4Qnd2dOHPuDOIT4vG45LFgjaxK7X8Px+ToeITKBWqfP0LIvh34858X4dzZi+ho7xKe3FwfTesApSt5RElIF3pKwrhjCWhseYnevj4kxh3FB3/+E5YuXYacgmIMjRjQ0d6Gvbt34h//97+Iij0qpB/1v67eHpxIScaZc+dQ39AgdmKgfVFMT9Lu6A5yCtAzqmfPNJ86odYUx3HBPCx+9zBXdaPMhPuPkIm//PKLWNO7dOlSASouq/z73/8uttwgEPkeCWFXw10QvvnmG/BdDlL47aefLsbixR8jOTkJnV1twpQRFLwWf/3bX/DDD9/j+++/F0s1uX4lM/OCWMBus1kxMjqM8PD9+OKLxfjyq8+wdNl3WLr8e6xYtQxhEaHC5V0/PAyDXo/Sx48QsmsnVi5bik8/+gh/+uOf8M//+wQrV/6MnXt2oehuodALRw16FBTlIzRsP1auXoHvl36P5SuXi3jbzm24duMausUAipOC4/808tBtqDbACT0am8uRkBiDb775DkHrN2HFilX47rvvRCAAqUsThOQpdWj2KkFBwfjs8yX49rsfsG37duFBzi1PuLPEo0cP0dXZgaMxUfh59c9imSeXey5dvgwrf14ltgIpfnAffTodjGazMGorNy/moYK3TrvgQEhYspvl5kPceoPLK7n+l3ZC2r84iuS6X24Rxm6GgxNKP46YKTkZCFBKwxs3ssUMBvdsGRjsQ3t7K3JuZQvpyIXu9LSOjo4R7z9/3iDMM5w35rYdJSUPkZKahJijh8Wqv9j4aKSkncTd+0XQjwzDYbfDaBjF89oaZJxJR1JCPI7FxiI6KlqMtuOPJSDjfAZq6qrF0kxuYNTV04nCu4VISDqG6KNRiE+MF+FW3i20d7a5HR6koUMrB8eDkN21CTYnQViJjMx0HDwYiaysazh5IkWYsI4dOya8wWkzVQMdxtzU6Xp2tlh7TfrYg3DAxy1MyNfn9fUChLGxR8WippMpKTh+IglH42KRnJqKG7dy0NHVBQO9121WMd2ngKeNFywICT4WhK2GsTpYIDJQMVO9p94VMyPubpHdDt9jGkqy8n3qeNzLUOxn6B788D4BrGZhmI5yJlADJHopc56ZuyfI+WYHRk16se5C5EudiKsIHZxGkzQ77PSoljMUlGc82B1zjTBH/VaHBSYr52U5Fy29bBhzgky9P14nHA9BZbAeNfXjaWkxEhJjceRINBpftGBkRG4szvIrXjB/BQreJ39kWQVp4pzX5CfNObW1NdizZw+OJSSgpPQp+gcHQPd+kQ7lsIMbIdlhV942GgnINBhUfipmvvNlomH66pj37pgJk1jhmq9ZzaUKpjJWMQuowKkI8772vMtRN8FtFfOqCmR8ziWHdGdneupQz+m44BJzA9R95GpBo1hyYBeS0CUm+OkN6hBgpGcsF+Vzc3KbnfPPBKcEobCD0hbK4GIl2mAlKO0SjDRsO9zGbVLiHRRtEoRWdPW24uKl01i7djV++WUtUlPTUVNTJ2ylNjpVuHeMID9ZNgVMdU1e8eA1A685yKNE5BLQDRs3IiU1Fc/KyjDMjYjcBAjjtHsw4qsrXvAgVC1HxR7Ge87UMxUrkPoqPN+RB2O2oPFBThWy5arWK5/zvnqXgJQ+eASq9MVT7wtXZLZMtn5KX0px5dDKyX66b7k9aMS5AB8B6Aluj0O3THT7943lLqlQpZBlIY02vGiuxfETsfjppx+xatXPWLcuWNg8e3ulwZvvqr1bFK8Ya/mlztV97jTBrpwWCNoYqTNeuHhRLIcliL0P9Z02fV/nC0YS+iLeu9C89n5PMXJqEIovvarW7aEiPJ/dQPQCKSEgQejt4KpA6/aJ5y6nDgLROQ6EnIpUYWoQilzGDL/jm4qUih5eSBDaHEaMjOrA/ahpnKahmt2x3IlLvu2LJ1p+qXOhWmhUGnZz1Cepa3Oenjyf7PCuD1/XARCOcW+iNFROE2MS0Q8QCqZzgdQ4AFI3Yvf/+kBIVy7pzkVpyxWHYwUdd+INCgU8X7GSdoz5XB28Vs/UPRV7p+/rmt8uCJ3QF/GqoNrY+z0tM72f8dpzTAdCafNX3bCKp5OEKk8tHfLcBwjpUqXpioWvoXBvmL0klPQR5NwNlmoCewm3Mukp9JQ9h5ZmloPXSq9W17w3no+axH30TIof2njBgJBF0xI+WcG93+G1Yqb3My92TeyOxzpA3wD0AFGo4+71KZ6uWJufXC5KWjz0eJZNqp0Z5OCDAxAVaNydOOswfmAyvhyUUGpWZbzLvuxWPQ1PS5/2XPFLG/M5D9U181qdj89//JU23cnOFxQIxxdv5lfehff95URJqEA2deypVN/pyrtKEslYO2NA0Cqd0jeAx9M/VS58RnrkaF/Gnm5zui/V8/H5aWmd+lx9P9s4AMIxjr0BEI5bNqoqNADCAAjfCgilfiYlzpsA4cyktWJFQBIqTsxj7M1U30m/IUmoFtOP7eYQAOHvQhL6Bp333dcLwglTHMxOCChtvmM3PcSpW9rY89THmTY96oPqQx+vviO3AiAcqwjvymMFziTwu7kcCiQKMHNJS32r0tTG6tm7FwdAOFYnrLCZgM77HX43l0MBJQDC+dgumGYldbwWBwaV+OuJAyB8PXydPtWAJBzjkT8gVFJsLBE/T1Q6jH9/h78gpNSj4zKXb9B/lO5pM5KEtLLzoEcvf3aLv1XLj5XLEGO+w+khOq9yZPvmDi0YZno+kbrxhmlljvGOlZ1Qxb4N1RNT9/+OcIQd20JE5etf7D8VE79k/asVk3SM4EEwEZz0YeQSDv5GIFcGEhd8RlzwuV8gVCQwcQVCekD7Cspbg894To+NhRBI67ggfktuRPy0hZ7n3s+nuZ5QZv0oRhhGGGbOk9nmO937s8l7qnfpjcOFZ/R257kCIIURhRUXsRGkzc3NQlgRfOodv0DIj3kQhBShdB3nSi/vwGcLNXApwfjwVGwjwq1E+CtK4595vzv+eiIPSsV+2vx5i6dPeT5zPs0m3+nenU2+073L5bdcqkEQcmEawad6Q4KXi9iKi4vR1NQkek0+IxAZE4QEMPOYcXfM7laJWSKc3TFRrg1MlIuzubcM1zlwhwWKY+077/I5GTYh3L2HYoZiBh/PJ7k3sZzkA8MDdzyedxPf9zyfTb7TvTtVPrN9Rp2OI2OuhmR3rAWZVhIShAo/c5KETIS6HlFL13mu8vIO9OClZKQrOfUAblPBLpnOmfMdputy/Hnuk8YhvfhBQ5/PpiiX7/xHoNczzK5rn23eU70/27ynep91yzrmO1pXMep9xEpDQ4PPX3Ticy7tJegJYIJXO4ZgelMu+VS6oa+YXfWLFy+EFCRxJIwZqJiS1DuwZfgTSLR38EXTbO55pzeX69nkO927c6HD+9vp8prtc5W++o7XrM+pflaM77w2EFIEc0TE5YbUEbgWggTxUMSqWAHPG5QzvVbfa2OVtr+xNq25nvtLg6/v5kqL9ntf6c/lnkpbpaHASMHDAQm3QOGSVK2047uvDYQUo/wdYW5kxL1kCEoSowhlrIhVsSI6EP+2OEABxF6R25a8URBSF+GuCfztYG7jxmt20RTNDNpzdc+fmPqGd2Ch5yN4p+vv9XzQok3DXzq8v9OmOd/nHC8wMF3qi+oXtCgRKYyU4KEwopDiIIpjCI43+Ewdc9IJCTpmzC3euKsqM2dgi2DgKIndtbrWxlRiJwva97zPuTGQCkx/LoHpeKfv7zXTmgst2m/fVbpIozfvWd+8r8wzHD1zkEqgqZ6QKpdfdkKF0qlidr8kgHoAzTWMaUtSZgOOhrhvCgnjPZpvaMZhUO9oY5oAGLT3vM9na1aY6n3vtOdyPVU+s302Fzq8v51t3rN9n3XKPNVWJOyOaTWhJFTHawUhxTB/X5jSgz9eyJitgMCkbZGGSe5VTQIpKfmcLYfvcHcpFSgt+T5bE9OZKvCd+QpT5TPbZ/NF00x4MBva5pMu77RYZ5SM7NFUXbJ+aSmhFFQHzwlMCioa14kb7fM5dcfMhH07RS8TVn0971H3o57IQYsybrJFMHPGSp/gNwxsORxRMfD5ZIHfK11jrrGiZbK8ZnP/90AX+c1yqrIypg6q6p51yLrkPYUNFb82ECqiGKvMFIEkhnoAd1+lFOS0jjr4TuD4bXCAwoTg09YpGy8PdY/44F6L7BG5eJ4gVc/4nt+SUAGQiWlByHMGEseMqRNSjGtBSCK130+WhkpLG8931WnTnsv574Uu73Kqnou8UwfPVR2re7QTUnfkmIG9pAIqn/sNQn7sq9KYOAkj2l++fCk2yaQuyEGMIlSBTr2rrn2l531PFWo+Yu+053I9H/SoNOZCh/e3Ks35ilX6Kj3va95nfbIn5DN1KBByIEPT3WsFIQFI8cyMOADJysoSrmDcLJOEcNsyzq4w8JoDG8bae7yeLKj35iOeLA9/7s8HPSoNf/Kf7BuV5uuKVb5Mn3XLwHvUARmra/aGyglm3rpjIly1Am2skE8gcmAif5HpkthxlB43JIR6Ip0e6BbEwHN22zR6TxdUGkxnroFpTZffTJ//Hugiv1lObVkVD7X3yDPWqfYecUBvK5rxKCm1x7x3xxTDlIY8qBdyRoWjY/62hwo0cNNyTmIJQtoG+Y63r6Kva743X8FX+v7emy+aZsqHmdI5n3T5SkvRwWd0fmagaY66H5/xmvWunlMwKfVLAXFOIFSJaGMlFXmP5xS9vgKnebKzs0XLYJdMZZVd+HSB7/lKz597M81zOpr4/PdCF8upDYo3vu4pvmifKV1RKw3nHYRaQE52TnDStkQQsoUQkAq0CsSTxZOl6c/9yfLw574/+U/2jT/5T/bNZHn4c3+yPPy5HwChuwb8Yd5k3/hTqZN9M1ke/tyfLA9/7vuT/2TfBEDoroHJGOTPfX8qdbJv/Ml/sm8my8Of+5Pl4c/9dwqEtKBTJ6T+QFvidEHpIPMRT5fXbJ7PBz3aNGaT91TvatOc6/lU+fjzTOmKrH+/3fv9aU38hq2ARHN0THMNJ7Zn6r1Bq7vytplrzLRmmu907/0e6Jorv7Xf05OK5hp63dAz//8D7di0OzgK95IAAAAASUVORK5CYII=;" vertex="1" parent="1">
          <mxGeometry x="80" y="200" width="101" height="65.87" as="geometry" />
        </mxCell>
        <mxCell id="CVMzIMqjBqlr0pFYdlRC-2" value="" style="shape=image;verticalLabelPosition=bottom;labelBackgroundColor=default;verticalAlign=top;aspect=fixed;imageAspect=0;image=data:image/png,iVBORw0KGgoAAAANSUhEUgAAAHwAAAB2CAYAAAAKhffYAAAgAElEQVR4Aey8B3Qj15WuO543M7JsS63Yic1mTiDBnHPOJCIBkGDOOTVzBAgQYM6xcw5ks3OSWlmWlSwr2OM0tsdWli15HMeSOnxvFdgtyb4eW7JnvXXvu4Nef59CASygzld7n3P23oV/4H8e/1f1wD/8X3W2/3Oy/I3AbwI3bknY/p/H/yk98HcAvw4I+v8JcOE0/lT/p1D8At/zbwAu9Mpt674GfMxNrnGT69zkhkWf/yL4b7pYbsLNP9Kfkvvs89vfXWhv7f/My+vHucnNm7ffd/vCFs51XcK5ftoHnznOF+j422/9zEff/jbcuCn0pdCnQt8KffrJN739Z39z+wWBCx99uyOEz7zODf6T6zd/x42bf+DGzY+4ceOapbNu3hQ6DYR+E9pPvvUnX/X2sW6/+MkL6xu3d/9J+9ljrsOBGzdu6yY3btywSAB2U+i4z2jdI92GJnxP4fX191+/cZNr1wXd4Nr161wXzoOPgY+AD7nJf96ScJ5/WIdxU3iPcLzbF8CfnMNfeHr7tG735m1fef3mDT68tv5Z1/gdNyzQP+0+4e/+nsffBFzoiI+v/Y6Prv2GG/yOmxb9gZs3P/6TTrzBdUsHrnfitevXuHbjI67d+JCPb/yBj2/8561WeP5ZfcTHNz7+s7p28xqCrt/6d4NP/932MOveRrgYP+Y6H3Lt5od8fPMPfHzzP/9I1/iQ61zjhuVYwv/rx1o/zseWi/kGwjn+ihv8h0U3+RXwa7Ds/w3Xb/6a6zd+xTWLfs2165/Vb7h2/bd/pI+v/46Pr/+ej6//4VZfCOe6/v1u8BE3+AMf3RA+4/d8eP2Xlu9/++K43f5/Dvy3v/8Vz73wNOcvrXL+0goXLp3g/IWTnD9/lnPnz1t09vw5zl04f0vnOHvhLGcvnubMpVXOXD7GaUFXbrWXj3P68glOCbryF3T5BGu3dek4a5eOc/K2Lh5j1aKjrF48yslLt3XM8r61y8f/5NgrnLqyyukrJy0Stk89tMLph05w6qFjrF05xNrlfZy8tIu1y8ucurLEmStLnHtoifMPL3Ph4Z2cv7LMuUtLnLu4xNkL/5WWOXtB0M51XdzFuYu7OX9pHxcvHeDi5UNcurKus+f3cOqs8N69PPzICb79r8/y+//8j7+H7//yt3+Thf/yVz9n7cwxOnoaqWssoba+kNq6cmpra6ipraWmtobqumoamuppbm2kqbWBxrZ6Gturaegopb6rkLquQmotKqK2S1AxNd1/TUXUdAsS3re+Xd11e18R1d2fSnjd8lx4vauYasvxS6jpLqGmq5SarrJP1V1Ko66S5oFKmg3lNBvKaDYUscOYT4tRS9tgNu0mNd1DanRj2ejHNBjGszGMZWMczWFwVGuRaSyX/1p5mMbyLTKP5TMyUczEdCWT09VMTtcwOV3L2GQlI5PlDI3WoB+o4cknz/PbX//ij/353+nT/wbgN/nF+++wZ/8iuYVKktOiiIrxJyzCn/CIYKJjwkhKiUUqT0GpTkOVk4Zam4pKm4RMG4OkIJKM4nAySyLILI1AUhaJtCwaaXkMssrYzygGaUU0meWRZJRFICmPQloRhaQiEkl5JJllEcirYlDWxJFVF4+6PhFNYxKahkTUDQkoqqNR1EShqIlGXh2JrDriEwn7s+piLFLWxqCqjyG3NZGCjiQKOxMp6kqkpCeeqoFEGszJtE2k0zMrYWA5jaF9yYweSGLycCozRzPYeVLB3jNq9pxWsftUFrtOKi37hOf7zmaz97SanasKdq7IP9GuFTl7VrM4eDqHw2cKOHqmnONnazlxtoGVc03s3NdIZbWUR66e4dcC8P/GxxcEvv7J7/3ibeaXJlBrM4mKDUDs5YCz6zbcPezxC3AjNj4QiTwGhToWlTaWnIJYsgsikGj9SSvyI7ncj7TKADKqg8isDUFaF4qsIRx5YwSKpkiUzZEomiKQN4aRWRdMRk0gkvogZA3BSBuCLNuZdYGoWiPI6Ywhryeewv4kivUpFOmSKNIlomoLJas1CHVbMFmtAbfkT1arH9ldweT1hpErqCeUvL4wCvXhFA2EU2wMo2QwlDJzCE0z0XTvTsR8XMrMOTV7HpVz5BtpHPlGAieeT+HsK1Ie+1Eu33ijmK//rIinf1rAU/+eb9Gzb5bw3FtlPP3TQq5+T8Xlb8u4Iug1GQ+9JuOR78h56gdqnvlhIS/8qJ6XftzJKz/R8dpPTFx5wkh5ZTpXr57l179+/78RN39b4OXn77/D0u4ZFJo0gsO9cBFZ4+i6GS9fO8Ii3YhL8iIuyYNMhR85heEUV0VRUh2OqtSHjEpvUup8SGvwI6MpkMwdQUh2BCPZEYR0RxCyliAUAqSOEJTtwUh3+CNp9iWzyRtJszfyVj+yOgJRdwWTq4+kcDCW4qEEykaTqRhPoXwsiarJFAoGI9D0BaDq8SOrx/eWfMjq8UGrD6RgMJSCwTDyDCHkDgSTowtA0++Lps8bda8nmn4Piof9qJoOYsfOCLoPxjF8NpaFx2MYPufFyDkvFh8P4+DzCRz/Viqrr2Vw+l+lnPu+gks/VnPxRypOf1fKsW8ls++ZKBauBrBw1d+ixat+7HksmBPPxrL2fBpnX9Bw8ZvFXHmpjIdfruLopXqKapK58tgZ/uM3/xtYuAB85745ZOpUgiO9EPs64OVvS2iUM/Ep7qRkiknKcEaiElFQEUhdWxQNHRHkN3qT2x1KVn8Ysp5gMjsCSG/z/UQZbT5ktnoh7/RF3R9IVo8/ik5vpG1i0pqcSW1yQtbujqbfj7zBEMqn4qheSKZuOY3G3Zns2Cel7aCc/pNa2g7KqF5MoGg8nBxT4C0FkGMKIH80lOKJCIrGI8kfCSdvKAx5rzfSTjHSLg+kXe7IekRojF7kDntTPOlHxVwA5fMi8ic2oR76GoVTD9By2AXdGX9Ml0IYfiiM8UejmHoihsXnUph5Op6Rh0MxXvRn4JwPHcddbsmZjuNO9Bx1QX/ElcGj3gyfCGNsNY6580nsfiSVieMqtI1xXHhqjQ9+9/P/DSz8g3fZtX8eeU4aUUkBhCd6E53qQXymG8lyV6RaMdllvpQ2hdI+mMzwkpqx3Wo6p1JoX5ZTvZBJ/kgs8v5A0tq9SGv3JK1dTHq7BxntIuQ9XmQPBKDW+aDs9UTeJULRLSJb70nJaBCNS3G0H0ij7VA67UcldJ2Q03syi/5TavrWshi+UmTZbj6QSvl8NAXjIRblj4ciqHAynKKpCAonwskbDSPbHIxywBeFzgu5ztMixYCY7CEftKO+5E/6UTTjR+6kK7LBjUgH70cx9CCa8S2ULjtRu19M1V4RFbtdKNvpRN1BDyr3uFCyZEfZTntq9rtQuceRyj0OVO6xp2KPLTU7balftKNp0ZnWXd507A2k/2ggprVAevcmkt0czfmvn+SD37/3F4Gvxzs+/0zuc47ht1eANy3xk59/8C67Dy4i16aQrAwhJTuAtHxvJKVi1PW+FHeFUW9KQLecxdRKKcvna1k8W4V+n5rOPSrq5iUUDcei6gtE2umNoscHSYc7kg4Ril4xOQP+5BoDUfV6o+r1ItfgR9lYCA3zUXTuT2JgRYLptAzdajr9q2no1jLQr0nQr0npPZ5J3wkZHYfSadyVSNVcNKUT4ZSMR1AyEWGxbMG6i8cjKBwLJ284lBxzABqTNxqTB6pBEUqjKwqDC2qziOwRD3LHxeRPeZE36YFm1An1iKNFmhFH8ibdKJzxIH/KjZwxJ1RmO9RDdqhMNqjM28kZsaFgyoHSOWdK5x0pW3CkfNGBygV7qucFOVK96Eb1kjstB7zpOxFI+1I8WTXhLB+d4slnH+Hll1/m1VdftbQvvvgizz//PG+88Qa/+c1v+Oijj7h+XQggCYGuT/VfXSV/GbiF862YpSXCtg78vV++y+7DS2QVpSMviUZZE4KmJZDCgSCqx6NoXU6j74CC0TNFTF+uZPJCBabVQlqWZdTPpFMxlkiBMQJNbyCqbh80fT4ou9xR94kpMAdQPR1L00IK1YLLnoqlcSGR/iNSRs+omLyoZupyFuMXpZjPpDB4OhHjqSQMJ5PQnUimY38crbvjaFqKpW42mqrJCMpGwykdDadkNIKS0UiKRyIoHAoj3xxCrimYnEFfss3uZA87oRl2QjXsQJbZHpXJAbXZiewRV7QT7uRNeKEd9yZ7xIvsYUHe5Iz4oB3xIXvIiyyjO3KdCxld9mR22SPrtUepdyB70JGicRHFE66UTrtQPutCxZwzFbcugJJFJ4oWnanb50XnsSCaZ+NIz/elpbcS86ieiYkJJicnLRK2BwcHeeSRR3j77bf58MMP/yxwAf6fe/zNwHcdXiK/OovCZgml3SlUmZPZsZhO5z4puqNqDCdyMK3lM7CipWOfjLr5ZMrGYigairJMqHIHQsjRBZKj8yPP4Eee0YfyiRB27ErEtKZh/pEKpq+UMHGxgPGLuSw9XsL+ZyvZ80wJ849lM3oxE/O5VIxnktCdTKDneBzth2Jp2BlB7UI4FTOhlEwGUzQWQMGIP/kjfp8ob9gHrdmbbJMXmkFP1IMeqM2uaIad0Yy4WKQedkFldiZr0BmV8NqIiOxRMdkjYtRDYlRmD4vUZjFqk5gsgzuyfhcyexxIabW2KL1zO9JeG5R6W/KGnSkYdaJ4wonSaSfKZ9dVOutE0bwzhfPOVO0Us+OAPw2TMaRofahsyqO1s5Hu7m76+vrQ6/XodDqKi4s5duwYr7/++n8J+78V+Lu/fJflQ4uUt+TTaCigZVxL61wW7XvltB+Q0bZfSuveTHbsyaBmPoHC4VCyB/zRGoPQGoLRDgSTZwyhwBRKyUgo1dORNCxE039UwszDhRx7uYUrPzVy5WcGzvywm2OvNnL4WzUcfqmSvc8VMXVVgelcMgNnEuhdjaH1cDh1u4OoWAigdCaAokl/8sZ8yB72RDPkgWZIsF4RmmEBqgvqIQGiE1kmQc6fyizsd0aArR52QzUkQjnoalGWyQ2V2d2iLJM7SsH1D4osVq0cECHrdyaj257kNmsSm7dalNK6lfROK2S929CaHcgbdqBwzIGSKQfKZpwtKplxoXDWlYI5V0rmXKleElM7Fo28NAzjeDd7DiyxtrbG5cuXefjhhzl9+jSNjY2cOnXKYuG3rfiz7vz29u3XPtt+Pgu3jNzrWSHBUbz7wTssHZintruUnska9DsraV/KpnoukdLpaArHwsgdClpvzUHI+zyR9nigHvBDrfcjxxBIgTmE0rEIamaj6TmcifGkgqUnyzj9/S4eedvE4++ZeeLnZi693sfR1+rZ+Uwhc49pmHxYifFMKv2rCXQdjaF5XziV8wHkj3mSbfKgYDSA3KEANIM+qAxeqIxiNCYxGrMHagGayRml0RGFYV1Ko/DcGYVhXUqjC1kmV1QmEVmDIlQmDxRGEXKDG0qjsE+A/SlwpUGEXOdKZo8jqR22JO6wIq5xM/ENm0jcsYnU9i1IeqzIMdmTO2T/KfBpF8qmXSmZcaNwVkTBrDsFky4UjjuR3xdARn4IU0vDnLt0mtdee80CV3Dh3/zmN+np7ub8uXO89dZbXLsmJIE+Hbtvb1uQfZb0re0vBPz21G3dwheobC+gfiCPHeM5VI6loRkMQmXyRzXoh8roS+5IMPljoWiHg1Eb/FDpfck1B1M8FkH1bCzNu5LoPSph8koB+56v5fQPurjyhp5H3jFw9W0dZ37UxqGXq5h9IgfD6VR0q0kMrKXRdTie+qVQ6pYE1x1M/pAfKp0Xih5P1P0BZOtCyDWEk2eMIG8wlLzBIHIH/dEIF8CAO1k6EUqdG0pLK0IhtHoRCovcECAKLlpp8EBpECPXi5Dp3cgyickd80cz7G25CCT9Tsj1rhaXrjF5WraFMVwYv9PabZD02JI7LKJqPgCt2YncIQcKRh0omrCjaEIY150pGHclb8KN3Ak3tMNOFAw7U9QfRkZeOJ26Fvbs38Vzzz3HT3/6U372s5/x2quvMjI8wsULF3j9Zz+zABdYCqCFCdxNIXX4Fx5/Hfgn1r2elxUO98777zC3d4qiRjXF7TLK9BnkG+NQGgJQGH1R3pJmKJDc0RDyBYsfCUZj9LOsiytnYmhYTqD9QCr6VRnzjxdz6Fv1nPphG2d/3M7aD5o49EoFy9/IY+IRJaaLmbQfjqZ5bwSt+4VxOorq2QhqZ2OomYqncjyBitFEKkdSqR6VUDUspXJIYlHFUBplpgSKDFHk6kLQ9geS0x+AVhdoUbYuEI3OH7XeB5XeC6VejFLvgXJAaD0tkunckepEKAweqExellbS70xat70FsgBbGMdVgx5kmwVP40mOSYx2SEz+mJiiCTG5Q87kDjmSOyxcBIKLt7FYfbbJ0TIxFIYYzaATBUOuFPdHISuKo72vhbHJUS5evMhr3/423/ve93jmmWfQ9+s4f/Ycb7z++ifAhbSw5XHbKv8L6J8b+HrKUUgcwtsfvM3Mngly6xTkNKagbY9F3RuOwhiAfNAPhdEPpWDlpgA0w8HkjoZ+Ar1kKpLKuVjqdybQeiCZvpVMph/LY9dzZex/qYK9L5Yw82Q2xvNp9K4l0nYsltaj8VTvDKdsLoTy+QjKZiOpmkmgY0lF73w+PXOF9M4V0z9fiWGpgd6ZGtpHy2gZKqZxMJdafRaVfRJKulIo7kykuCuJku5ki4q7k8jviSVHF0LWgA/KAW8Ueq9bEra9kfV7IO13R6Z3Rz4gtCKk/S5k9DhYvIEAW/AKwky9YCKApn2J1C5HUzQheDl38kbdyR12IUeY+RuskOsfQNa3CVnfNqR925H02ZDZb4tS50Cu0ZX87nBkRfH0mXqZnptmdfUkjz3+OE88/RRrp9ZorG9g3569fPPFFy3LM8G1Cx7g/V/8gnfefIv/eP8DPv7wwz+L/HMCFzLFQt5Y+Afv/PJtFg7OkN+gtCQsVC2RKLpDkBsCkBn9kBv9UQz6ozQFoDIHrUMfE4IeYRROhFE6HUHVYjQNe+JoO5LI0CUFE4+oGLsqZ/BCKu3HI6na5UfZki9Fc4IC0U4EoB4OQD0UTPZIOJWTGfQtlmGarkc/VkvfcDX9w/UMz3QzONGFfqSdnsFm2vqraeoqob6jgOqWbCqbVVQ0Za2reb0tbs0gpycSud7nEyn0QiDGD6XOF1mfF7I+D+Q6MQqDGKVRTJbRw+L2NUNeqMyeKAwickd8KZsNpWl/IlVLEeSNeaEdcadw0pP8MTc0Jjtkuk2kd99NSvu9pLZvJqV9K8kdViR1bEPSbYeqzwnVjiAy8mMZHB9k36EDHDx4mL3797O0exem4SGKi4ro6uhgemqKvXv3sm/fPnbu3MmRw0c4tG8/j199hHfeevtvAH7LR6wXCNwGfpN3/+Ntdh2dp6hZTXZTMlmtEci7gpEPBCIz+CM3Cq7dH+VgIFmmQFTmQLKHgyzuPWc4kLzRIIqmQiibC6NmZyRdx1PpWUmh/Ugs9XtCKJrzRj0hQjnmhtzsjMzoZLEoaY87yl4/CoyxNE1o6JuooktXRUNLPpV12dQ25tPZU0+vrgWdoYMeXSutnfU07KigtqmUyvpCymvzKKvJs2zXNpdS31JOZWse2pYUFG2hKNpDUHWHkt0fTrY+HLU+GEWfD7I+MTLBxQ/5kjXii2bMj+zxdalGvFCa3ckZ86Z4NgjtqBfZQx7kjHiQP+5F0ZQ3eWMiVIN2SPu3kNp5L4kt95HQvJGEHVtIaLEisXUbki47snockNZ5k6KNZGDcwLEzqyzt249+yExbTzcNzY0UFRaSl51DQbaWEm0eZfm5VJbkUltZSFlhDmNmA6+9/M1bZUbr3G97+r9s4ZY/EZy5UBeyXmUi2Pi7v3yTpUPT5DfIUdbHIWkKRtIRiHwgGLkhEIVRUABZg4GoBOCCazcHojb5ozb5oRJm0EJky+xN7qgfFfPhlM4EUzDui3bEE+WwBxnDItJMzqQb7MnQ2ZLWbkvmDkfye0Ppns1jZGczg+Ot1DeUoNFkoFKlUVGeR3NjFW0t9bS1NtLS0khdXTVFxYUUFBWsq7iQqtpqOnt6GB4bY3xmmoERPcVN2cgrhBRtJNnNsRTrUigfSqPQFEvOQDCKfk8kOjGSIV/kY/4oJwJQTQagmvBFNe6NaswT1ZgH6lEPShaCKF8IoWQ2gMJJH3LHPJAb7JAN2JDRa0VKx2bid2wkqu4BYhu3kNiynZR2OzQDIvKEFUGDD2n5UXQN9XD88hkOnD3N5K5lRmenmZqboaG+jqqSUrobdzDRO8DyqJnDyyPsWxikv7Oa8eFevvXi19fL0T5b68fnyJYJsTUB+Mf/C/ApChrlqJsTULSHo+gJJcsQitIYTJYpGJUpCLUpCI3g0s1BZA+tA88y+qA0eKE0epI16IXa5E222QeV0ROF3g1pnzOpOmeSjC4kG51J1duR0WeLrNOJ7E4vagxJGOcqGJ7ZQUt7OdlqGXJJCsUF2bTvaKC5vpr6mkpqqyqoLC+juLAIjTobmUyJNreQhsZWRkan2X/gOCdWz3L0xGkWdu6iU99GQY0KWWEC0uJo1PXxFPakUT0mp3ZaQuFQNPIBfzJNvmRaoPuhnPBDOe6NckyMcmzdI6nHReRawrDeaIWl4rCwdndFMeiIzGBHZr8NaV3WJLdbk9RmQ2qnPZJeZ8vSTjvoTtmoF2UDMcjK4pg9NM/T//oST3z7VU4/epXDa6vsObCXpsZa2hpqmR00cHJxkfOH5jl/bJSVgwZMunKmxzt55aUn14subwG/cXO9GvFzWbhg3R9bkK+79Xd/+QaLBycpbFagbU8hpz+OHEM0OeYIsofCyBkKJWcoxCIhMZFtCkRjCkAtTOQGfcgyepNl8CTLIESoxCgHPJD1u5LRvb6WTeq1I9ngRPKAA2n99pYIlrbfjwpDDO2jKobm6+g3VZOjTScpPhKFNJWG2nL6ulqpqSihtDCf/NxsstVZyGUyMjIkSKUKqqrrGRqZ4OTaeZ56+nme+voLXLz8KHv2H6Krv5uCci1pWQnESkOJV4WSURpNUY+M6mENJeZMNIYolINByAZ9kJu9UY54oxgVIx91QzbijHzUEeWYM+oxV9QjbmSZXZAbnJANOKAZFp47Izc4IOm3J7PPEZnOjaxBMTnDwhjvRcmEJ/XzfjROpKCsjGfvqb28/LMf8Npbb/DkKy+xevEc88tzlJbk0lxbxJy5m7Wdo5w9aGD1YDPzkwW0NiYzPlrLqy8/Avxh3Uffgi3Mv/4qcMGFC8A/4iNLu+7SBeATFDUrKOhOp3AwmcLhBPJHosgfiVhPOQ6HkjsUgvY28EF/1EZf1EbBmr1RfQa4AF1YAwtXenqXHSm9tqQM2JGqsyez3xnNgA9lpmh2jEjpnypmaKaR1q5i4uMDCQ/2I1slpbOtke72ZkoKc8nVZKGQZpKemkxiQgJJSSlotfno9IPsP3iUJ556lldf+z4vvPgaFy89yuLyXqpr68nSqEjKSCIiKZyw5GDCM4NILYxDWZ+Opj2T7L4EcgzhqIX5idEbhbD2HhIhHXZCMmyPZNgW6Ygd8mEH5CYHJAN2pPfZWJQ96m6J3ilNLsgMTiiMbmhH/SiYDKBk1p/KRT9ql/xo2RVA01QSyuo4Fo8v8twPX+WV13/K4y+9wL6VY/QP9lFaoqa9sYClsRZO7uzh2K4ads0pWJxV0NedxOxUFd9+9YqlEFKoqBXGbwH25wQuFOJe56NbFi4szAQLXzo4TmGTlGJhuTOcRtFIPAUj4eSPhFiUNxyE1izkof3JHvRDM+hriX5lm3wsLlxj8kI96GmJhAltlkGYBbsi6XMivc+WVJ016f22yPvdyBWSMqYU2kdy0I2VozNVU1mVRXCgiJAALzTKTJrqKqmrKiVHJUeSnkJCbDSR4aEEBQYSEhJKjjaPyalZzpy7xMuvfJcf/tvrvPSt73Du3ENMTs6jzSkgLTWDuIR4wmPCCY4OIjA2gPD0MOI1saSXppLVlIy2O47s3nDU/cGo9AJ4L2RmNyRDjmQO21mgy4edyBpyRYAr0TuS3mtrybppLO59PVyrGfKkeDqUioUwy0R1x4Fgeo+HM7ASRstsArKyCIaWzDz0whN84/v/ytXnv8HuY4dp6WykoCCDzh0aFsbKODxfzP55Nft3Sjm7VsGoWcb0eDlPP3Gcn7/7E95793Xeffct3nn3Hd75+Xufx8JvA1+ftAnA3/vl6ywfHCe/IZNSnZTS4XQKh2LIMweSN+RvkdbkS/agNxqjtyXCJRQTZA96oRVyzMM+5AwLGSZh/L6dZXK1jN+SXkcy+raT1r+ZzF5rlD0icntDqNan02rIp72/iPrGHLIUcfh5ORHi74UkNYG8bCU5KhkZKQlEhQXj5+2Jh8gVJ0dHXF1dkUikzM4t8shjT/FvP36dn73xHi+99B1WV85iHBhGIVWTEJ1MdGQsYeERBIWFEhwZRlhCFDGSRBLV6WQUJiKvjCarIRxNewQ5fWGohWCTyRPZkCuZIw5IRuxRjbujHROyap4oB92Q6p1QD3mgGroVize7ox31oXw+krpdUbQdjqBvNYzRi7FMX4mlb1cymcXBdA63c+j8CR56/hs89uJznLhwhm59Kzk5sXTukDAxKGH3ZArH98m5erGYpx9vYcwkQdelZPdSPxfPHeP8uRXOnVvh7PmTnD1/+osDFxzDe798g50C8PoMSvtvA48m1+xP7pCPRTkmAbAnGqMnGoN4XUYhCuVFzpA3uSM+lnWrEKwQJmrpXQ6kddqtq9uK9N4HLDFoRZeInM5QyrvTqW3PoaI2C406iegwb7xFDgT5ikmJj0IhSSEjJZ7ocAG2GLvt29iyaSNbNm3Cwd6elNQ0Fpd28s2XXuWNN9/jJ//+Fk899RwL87uorqwnPTmTuIg4IsOiCA0OJSgomNDICCLiYohOTSRekkqcNJrojKBGJhoAACAASURBVACSc4ItxZHaznhydFFkGYMsY7pkRIR0xIXsSW9LJk2icyKz3xGFUUjAiBCSLlnmdeWO+VK9HE3Tvmi6TkQwcCYU87kQpi6HM3JchqIijBZDE4PzIxy5eI4nXnqBh77+JOOzJoqLk+ntyGRIF82R5TieeaSKV17o5MxKOcbeDKqL42moUtHZVkdHWx1t7TW0dtRS31j9RYELo8BN3vvgTQvwvLr0deAj6ZSOxVE6GUrpVJBFxROBFI0HUCikJ0f9P1HeqJ8FtFbIJQ+tS3DvgktXDrhbZupyvS1S3YPIeqxQdrqT3RZKdm08mqI0ZIp4osN8EDvZ4OvuTGSwP/KMZLRqucW6QwN9iQwNxtHOhvvv3cC992zA1tYWqVTG/oOHeO073+XffvxTnnn2RXbvOUBtTQNpKRnERsUSFRpBWFAIQf7++Pv5ExAYREBICIHhoQRGhuEf5o9PoJiwBH9ScqKQ1ySg7kxAPRCNYjAE6ZAv0mEx6lFv5AZX0nrsSOuxRQAvQM8SEjK3gGtHvSmfD6NudyhtRwLoW/NlYM2bqStBTJ1WIq8IpllfR9/4APvWVnn0+Wd56OknmZwboqIindrKUGbHYnnikoyXnqnl0ulSDuwsZLBHTUeDlsG+RmYmzExNGpmc1jExrWdHW/0XAS4szgTg8PNPgKdRqsuwFBBWz8TTvDeO5r1CzDuaxt1RNOyKpG6noIh1LUdStRBB6UwoBWP+FuBCHFra50JmtxMZ3U63lih2yHVbkHVvR9nhgbollLT8IOLSg4mK9sdX5IT95gdxs7MmLMAbWUYSKnkGcVFhhAb5oVUriQoPxcbaygLc3s6OgoICVtfWePGlb/H4k19nYWkXZeVVxMTEExYaTkRIOOFBIQT7+xPg7Y23WIyHhxiRuweu7iJc3N1wEbkicnfDN9Cb8ORQYrMikNUnoNElkmWIQmYKQmb2RWIQIRtwQap3tkBP6rC2XAAWCxes3OSO2uxB7qgXJTOe1O12p+WgC/0rHsw8FMLESRlpBV60mxqZP7zEypVLXHjiMY6cPkXPQBuFhQkMD6q5cracJy9L2b8Yg7E7mD1zJbTVZNDZUMjSlIlTK4dYO7mP1bVlVk7tRG/s+uvAhXW4sBgTbtpZT58IwN9g54Ex8uuSye+KpHg4mJr5UFoPRtB9PBrDmWSGLqajO51A5/FIWg+H0nwgkPo9QRROeJM75EvOrQIEtdETWZ+wJHMitcPeIkmPE8p+F+TdIopMUWg6wknI9SY4wQ0vX3u2b3qALRvuwWbzRjxc7YmJCCYtKZaosED8vNxpqKkkX6vBw92VezbchaODA/n5+ayuneT4ygpGkwlNjpag4FDc3NxxcnDGx9MHf28//Lx88PX0wsvdHQd7O7Zv38Z2GyvsHLfj7OaAyMMFDx8P/CODCUuLIqUkGnl7FIq+MNJ7fUjpFZHa40R6r4NFad12pHTZIhtwRaJzJqPPgdRuO9K6bcjstUWh307RpAMNu9zQn/Bn6mIExv2ppOZ70jZYz7FLKzz1yss8+vxz7D52jI6+FvLyE5gcLeb8Sh3HdybTXu1ITuaDDPcpqC9OpKs+n10zZs6uHubUyb2cXFvgxMkFjKbuzwd8/V5GYUEmrOLhF+8LwEfJr49H2+FL0YgbtYtetB8OQHcqnLGHk5h/WsLowwn0nwmhc8WXpkMiana5kyMUGQyIUQvjutHLImGJJqzFpX2uZHY7I+v2sFSsKrsCKR9LRd0VQVy+GK8Ya2yc7uPBu+/CZZstPoK1eboREeJvWY/HRITg7eFKaWEeeVo1HiJnvvqVL+PgYE9xcRGLywu0tLeQmJyIk6sLW62s2Lp1Gw8+sAkXJ1fEIjFikQeeInc8XF2x2baVzZvuY8uWe7Gx24TIwwHfADEiL3fc/QLwi44iMiuE5Co/Mlr9SWkXk9juTEqnowWqADa12550IVyqd7VcAMmdNiS0biOhdQvJHVtI69yE1mRLzbw7/YeDGT8dzcCeNOSlAfSO7ODkw6d4/rvf5euvvMLBU6fRDfVRUJTKiKmYg4sVTPXFUiDdSnzgl6nJD6G2IIGuulwWxnWsHN7NyrElVldnWDk5x+DfBXz/HwOvX/ai+3ggxnMRTD6WwtKzciYeS8FwPpKulQAa9ouoWHQj23QL+IAwkRMmdV6WZZp2WKgr87EEYoTqUWWfH8q+AApH41D2hBJXLEYUvZmNNl9my4P3khgZTZ46C1lmMmlJMaQmxhATGYKflwexkWFEhAWx3XoLX/3KHTg5OVJdU82O1h3ExsdgY2fLRmFCt3XrLeAbsbd1wMnRGWdHJ4uc7O2w2rKRBx/YwMaNd2Nt/QAidwcCQ3wR+3ni4u2Ns5834ng3QrNdSKjxIKXVg+R2lz8LXKJzsYD/FPhWUjqtSO3YhEq/ndJxZ9p2+zK0EolxnwRNdTi6iXb2rOzn0lNf59HnX2Dl4iVGpocpK5ej781l1pyNsSmQvPRNJAbfiSLRbh14fR6LEzrWju1hbWUna6fmWTu9iMnc80UtfD0e/4v332TnHwEX0bjLm761QMyXIpl9Ko3dL2Yx+1QmpktxdK0EU7fHnZJpFzSDLhYLF6zcIoMY9eA69JwhX8u2kKJUDghFFEJINgx5fxCpdX54p21ns9NXsbfbQrFWy6Cul9amWgq0KtJT4ggN9CHIzwsn++1s2XQ/9274Kvffdw9eXp40NDYglUmwdbDFapsVHmIPy0zcU+yFzXZbrK1tbmk7262tsd5mxaYH7+Pee4RjfJWtW+7B0ckaL18PAkIDEQf6Y+XmgJX3RlyTNhNW4Ehys4iUDhdSBQvvsluX4L571gNIgqXfBp7YZkWqEGJt24i0eyu5g3bUz3igPxSKflcmirIQWvS16MaMLB48wuqlK5y4cJGx2TGqqjV0tagY7pViaAygJseJvExbNGnONBQn0ddcyMHlEa5eWuHShUOcPbvMqdPLnxf4eqxGuBNaiNisu/R14AX18eR2+FI8IqJpjzcDZwIZfTiShWfS2feSmsVvyBl5KJnuVSEr5kHBuPMt4B6oBjzI0rlbAitCcEVw53KdUC4kQj7gSZbJj+zREOSD/kh0fmT1RhJT6IWd7/1st30AaXoyHS0NtDRWU1acizQjiUBfMYG+nvh7i7Heuon77r0b621biYyMoHlHM8Ghwdz3wL2I3EVIpVI0mmzLhM16mw2bN29l06YtbNq0mU2bNrFp44Pcf/893H3Xl9lw9x1s2ngXtnZbb43hYlx9PLARO3K/2z1sDvgaXvItxNQIcxDBpTuQ0mn3qbqEfIATaQLwDlviW7dZsmOpnTYktWwmo30Lqj5rKsfc6N0bRPdcKklqT/Kr1TR072BkbpHj5y5w9pFHWdizQHWNlrZGJSO9Mia7ozE2R6JrisPYJqOrToGhrYxDO0e5evEEV68c45FHDvPoY8cZHu7/PBa+HpITbli3PG7A+++/ye4DoxTWx1PSF0ztnB+dhwMwXwxm4ZlEph+PZ+dzUva8qGbmCSl9q1FUL3pRMiWmfCaQXLMP8l4XJF1OSHtdLJM2Abis380iiU5E5oAHGQYxaYJ0XmTpI5HtiCQgxZn7N38Zfz93KkrzKMxTIU1PJCUxmtTEWItCg/yxtd7KA/ffg8jNBY1GRWdXB+5iEXdtuAs3kRuJiYnExcYhEnmwzWo7WzZbsXHjZu6//wHuuede7r77Lu666yvcccc/cued/8i999zBxo33snnrZuycHbAVObDJeQv3ON/FPR53sC3qToKLNpOww5bEVluS2m0tcAXAie02RNZvJEJQ3YOE1z1IVP0m4pusSN5hhbRzO3lGZ6rGxbQv+dM2mUxGbhBFNbl0GnqZ3rmbE+cvcP6Rx9h1YBd1dfm0N6mZ1KvYPypl76iGRbOWBXMp+uZszJ0VHN8zyeNXTvLQxcOcOyu49WWMn2+W/ueB7zkwSnFDAqX9IdTPB9BzNJCRK0EsfSOe+acT2PWchOVnFYw+lErHkTAq59aTA6VTQn2XN4p+NyTdzhbgAuxP1O9KWp8zKTpnZCPeyMb8SBUmdYZwFJ3RhCs82OpwN77+rpQUa8jXKpCkJ5AqAE+KtSzNfMQibLdb4WhvS0pyEp2d7bS0NuPgZM/d99zN5i2bcXMT4eXljaODE3Z2jpaxfB34/WzYsIG77voqX/vanfzLHV/iy1/+Ehs2/AsPbryPzVu2stXWmk12m9lgczdftb2Drzj/Mw8G/z/45t5HdP0WYpusiG/dbgEtgE9osyGifhMRdQLwdQnvi2+0Jrl5O9JOO/IHRVSNe9O2EEjbeCqZuWEU1+TTM6jjwIlVHnrqaS4/8RR7D+2lrq6A1gYVIz0KdpvS2T2sYsmcy4KplIHmbEzt5RxeHuXq+WNcOnuA06eWWF1ZwDDQ+fksXLBuQRaXftvCD45S3JR4C7g/XUf9GLzgzcRjIcx/PZ6Fr6cy+VgqulPR1O/2o3RaTP6oB7lDXuQI+fABTxRC2VCfG9Le28BdkPS7kNLrQFK/PappPzTzwWSO+KAyh5PVE0Vsri+u/tsIChNTU1tIbXURhflZaFQSZJIUIkID8RK7WcKq8bHRtOxoZnl5ibr6ehydnHhg40Y2btpsgezm6o6tjQM2NvZs3bKNjRs3cf/997Hhnrv42l1f4at3fZl/vuNL3PHlL3H3Pf/Cxs33s3WbNZsE72F7P/c5bOAux6/wVZc72Rjyz/jm30904xaiGjcT3bxl3XW3bSehzZqY5q3ENG35RLGNVsQ3bCe52RZppyN5g2Kqxn1pXQihdTydzNwIimsK6DH2c/jkGleffoZzVx9hYdciNTX5NFbLGWhNY7onhpn+dGYHNEzrC+mtz0LfXMSeGQPnVvZyZnUXJ1fmWTnxBYELv2Ty6Rj+FrsOjlLSnESJLoS6BX/aDnnRfdIR3VlXJh4LZ+ThKMsMve2IUC8upnBcuDnPxVIpqjEIcXY/VAahXkzIkgnA12EL2bHUfnuSB+xRTnmTvRyMai6YnPEo1P1RpJQFERDvRnicL00tFXR01NFQX0pZqRaNWkpsTDjhoYEkxsdSV1PN3t27WTt5ipqaOsSe3my3scPWzhF3kSfeXv44ObrhYO+MlZW1Zey+//572XDP1/ja3XdagP/THV/iX+78EndZgD+AlbUNm6y3sNVlM3b+29jsvZF7Pe9jW8zdhJRtIbF9O9HNm4ls3PQZ6NYktAlLsW2Wi0AYw+ObtxPfYENysz2SDmdyjV5UjgfQuhBG63gmmbmRFFcX0anvYWnfPlbOnuPg6knMY0NUVmipKcukqy4eU3MQQ61xTPQqGOvR0lElpUdYlo30cOLgAicOz3Pi2Cwnji9gMHyuwMv6bxcJP29jibPdhJ+//xY7D4xQvGMdePWcH4173Knfv43Gg9vpP+NN16oPbcf8qN/rQ8msCO2IM9J+O0tELUvvg0YoZzb6Itd7IOlzs1i2VO+C3OiGdNCNTJMbinEv8haCKd0VQ8lMPLmGGGT1EcRlBRCbHkh1Qz4trVU0NZVTVVVIXm4WSnkm6iw5jfW17N61k8cefZwLFy7T1NRKZFQsbu5euIk88fEJIiAgDLHY1wLfZrsNW7ZsZOPG+3hw4wbuf3ADd93zFf75zn/kn+78B75yzz9z/5Z72eawDVuRFR7htoRkuuCZbI197H24Se4lpl4Io7qS2GFD9A7ByjcT37qVpI7tFgkz9BRBXbaktjuQssOR1BYnMjucyR7wpGQ4gPrJcOoG05Dkx1DRWEa7rhPD6DDj8/OMzc3R1tVGaYmGugo5vU2ZmFvjGO5IZ0qXzZSuiM5qOV21OUybOjiyZ5pjB2c5fmSGY0fnGRj4HMAFyIJ1C8AtE7eb8N4Hb7F8cITilmSKdSGUTHhQPudIxZIV5ctbKF/eRtmSDZXLLpQtiMifdEZpsrVUZqZ1OSLX+SLXeSPTeaISKkj63cjUuZBl9rAULBYthJIzGUjhfDhVu2Jp2p9C/VIa5aMpFPamkF2bRGZONMqcJErKNDQ3V9DaWktdbRn1tZUYBnSsnVzl1Vde4Xvf+yEPP/w4wyOTKLO0BIdE4u7hi4urJ45O7tjZurB5kxXbrLayzWojNrZbcBPZ4+njymbrB7hzwx38453/wD997R+51+ouXHztCE/zIqMwEGmlL2lV7sRV2BJZYUVSq6MlXSodcCNVKOLoFuDakNpteyuubvdJXF0tBJ30fsh7PMnodLbMZ9R9nqi7PJHXBqIsS6bT0EafuY9eo44OXR/NnZ3UNtaSlyejv7uCXdMtHF9u5uhSM0cWmlnZ2YO5vZC+xgLmhjs5cXCOk8eWWDm2wIF9U+j1XwC48ONVnwW+KFh4SzJF+hCKJzwonXGiZN6KkvmtFM9vo3jehtIFJ4rnXMmdcEY1ZI/ccreHUMMdjFTnTVq3K5k6d2RGDzIHXFAOicif8aVidyS1B+Kp3x9P0/44WvYn0LSURPVEAiX98WgbYpHmhZNTlEpdQyHd3Q3o+lsxDnSzMDvFY1cf5l+/8x3LnRlvvvkOL37zVQ4eOkF1TRNx8am4uXtjtc2OjRuFmbkVW7dYYbV1MzbbNyMSORAW7kdcUiQOrjZs2HgXd2z4F+568KtYu2zBJ9KDyEwfUvN8yCz3QNEkRt3tjkbvSe5wACUz4eSO+5E15I7M4IxE50hmvz2p3TZk9NlZUqVCylQz6G25/UrR67UOvMcFRbcYWauYzKoAlGVJdA62sufobpb27cQ4OkSnrp+uvi7UmgxamwuZHW3i6M4OTuzu4vB8C4fm2hnYkYuxtdRS4/bQucOcWd3N6vFFTq7uYXCw769P2m5b+J8CXxIsvDWFQl0wRRMelMw4Uzxn/Qnsolk7CmcdyZ92RjvhjGZUgO6GclAo6w1CqvcipduFTJ0bQtWndNAFmVlILXpQtTeUzlPJdJ9KpHctnv6TCfQdS6FzTwrNk8lU9yeSXxtLU0cuJrNQrmtk1+IEp1cP852XX+T1n/yYd996i9/86rf8/nd/4M033+Prz7zA8MgECqUGsacPW6yseXDjJousrbdZgNvZbMXLy5W4+Agk8lR8g73ZbLOJDZvuZrPtJjyDPIlNjyNOEkmyJpiMIl8U9T7k9vlROhpiuXmxdDaYvHEf1MPuyI0ut2BvJ6nTipTu7evQBxwtoWRVv/AjBCJS2oTUsCOyLnfkbZ7I6oLJrs1gYLKP1QsnOHryGOOzU/SbBjEOGSkr19LWXMSQvoK54XKWRqvYNVbDztF6dE1axvpqefzCEX7y3ed54ZlLPHTpKBfOH2XIrP97gI9S1JZCgS6YwgkPimddKJ6zpWjOBgvsGQfypxzRTjqRM+5Mzrhw/7RQ+Sncp+WLRO9JRr8IpXCnxoQPsiEXpGZHssZcqNzrR9/5OAyX4xm+msjEo2lMX5UzcU6B+bCcvjkpO/SZjE43c+jgLGsre3jowgrffeV5fvfBe/zulx/w0e9+z7UPr3H945t89Ifr/PSnb3Lw0BEKiorxDwzEzsEeGzsb7OxtcHZ2sIRhbW2sEItdiI4JJUOWQmR8BNudbXjA+gHsRLaEx0UhUalJlqaSpIgkPTcESbkvqhYvCgz+5JnFlsCSfMAR6YAjEp09ab3C8mwLsS0bSWjfQkrXNtJ7bZD2CjkDd9LbnElssSWpzY6kJnviq+xILBYjK02gZ7idnYcWWd63zMjUOAPDQ5hHzZSX59FUl4e+q4hRfT4TA4VMG0qY0pfRU6tiQtfAC4+f5tc//xHvvP4dfvDdZ/nWN59gcmLorwMXZuZ/NIYjjOFvsnhwhKLWZPL7g8gfdaNgypnCWXsKZ+0oEGBPO5I76Uy2UNQ34oJ6RIRqyIO0XmcydR5IhTs4jO6oRsSoRt1RCYV/E4KFO1OxR0zf+XDMD0cz/XQyu16Qse/5bPY+lcvipTzGj2TTN65keXc3Vy8c4/knL/Hac0/ws++9ynv//iN++9578OHHt38p0zLbfP8X73P23FlLTD0kPAQXkTNu7i54iF3x8hLh4GCNnZ0VbiIHgkN9iU+JJiw2FEexE/YeDviE+5GckW6ZB6SkpZOQGk2yPIyUHD8yysUomj2QtTmS3raN1I5tlrBparc1yZ1WJLRuJm7Hg8S3bCKxTUiaWJHWYUdGm7Nl4ha/Q0io2BBVbUVQ/oOEqe1J0YbT1FONbqgHw5AevdnA4OgooxOjlJfnU1Ohoac1j+E+LaP9+Yz15mNqz6W1XIq5o8Ji4R+89X1+88G/88HPf8RPfvQKC/NTnw+4MHZ/Mkv/DPDC1mTy+gLJGXJGO+pA3rT9uqYE2E5kj7ugGnFBbnJBanAhQ+dMaq8TacISbEDY74rC7ILC7EjerAfFS54ULoqo3iei91wA5qthzD+bwL6XJRx5OZujL+Sx7/ECplez6R2TsGt3J89ePc33XniS7z7/FN/5xlM8+/AV/v3b3+G37/6CG7/7CD66zvU/fMh777zF2bOnqKmtIDQiCFd3R0QeTnh4uuDp5Yqzqw0OTttwFdniG+BOWHQQ3kFeeAf7EJEURZo6E6UmG1m6hqTYdGKiY4hLiiBeGkBSjieppa4kV1mTVL+Z5B1bSGzbvK7WzSQIoFs3E9+y0aKE1k0ktViT0mxPUrM9cc3biW3ZTkT11k+Ap2rDqW4poamzlpauZnr0vYxMTDAzP0ttTRklBXJa61WYerIZ6cvD3JGDrklNc0kG3bVaTuyd5LsvP8lbP/027731fX70w5dZXpr9/MAFK18vf1i38KVDIwjAc/sCLCnPnBEHcsbtb8kRjfDzF7dgSwzOFthpfU4kd9uR2GlLSo8tmcJae8iJbOGXEZa9qdrnS8UeT+oOedB7zp+hq6HMPxvP/pczOfZqDsdfKmD/4/lMnsiiayiVQwf6eenR83zzkfM8dXaVFx66xOWjR/jGpct855nnePsHP+H37/+S3//6V/zkxz9k954lcvPUloyXq4cjzq622DtaY2u3BXtHKxydt+HqboeXnxv+Id74BHuTkJlETmkuJQ0VFBaXIE1RkBiZTHR4DDH/L2vvHR3nfR7oavcmcZEoFnRgem+YPoMZYIBB770MMOgY9N4BopBoBAj2KvZeRBVKoiRT3bJkNas7kmJnHSexc+1k17Kc287uuefc+Lnn+yi5bHI2SnZ1zivwgP/x+d5eftlBckr85Ne5KWyzkt+lIq8/ibzReHImYv6HkjuWSP7ovVw8e1xC5kQS2SMyMvtkZLcaqWjLZGS2m4m5IabnJ9i9tsThE8c5d+EskxODNNQW0NdeyNJUFRtzDayM17BnqpGZnkqme+vEKP2FO9d4760X+NGnb/MXn77LQyePfD3gAujfVdqEPPyLX3D2+gEReNMuD2Fh83FTTWifgtA+JaFN4WSGlup1HRWrOkp2ayhaVFMwr6RgXkHWVAJZU7EU7kqibr+WjlNWBq96GbvlZ/Smm4lH7F8CT+Oht/O58lElj3/WxhN/3sXV19o5dKuW6bV8Lp2f570XnuLDl57hnWef5NPvvcI7zzzDG089zbNXrvP8zcf44I03+dnf/pT3P3iHPRvLVNWW4fE7MFl1GEwqNDo5KnUSFqsWl8dMSqodX5qDlICLrMJMalvqaOlto20gQnNLM+V5xeSmZpGRkkEwECQzL0BOuZ/8Bhe5rXqyO2VkDcQTHNn+R5I5uoM/lKzhWHKGksgaSiI4Ek/6aBw5Y3Jyh5TktBspa0mnb7yN8dkBZhcmWd27ykNnz3Lt5jUW5idoqi+kuthBS7WNsUgWu4bLWRmrYyJSynhnJWs7ezlzbI1b10/x/N1H+d6rdzl08Gv68K+Ai82TL4Gfv3mIjukimha9hDeEHWktNesKqteVVK+rxX2wilVh5Fgrwi5cUIsFifw5Oelj0aSNbiVvLo7QAS29F1xM3Epj9okMph/3M/O4h13PeNl8OZ2H3i7kykfVPPmjCHc+6+Ha6xH236hlfCmPw/sHeO2JG/z07e/xDx+8y+c//Jj//MGH/OWrr3Hj4BH2Te3k0smTvPfuW7z43eeYmZugOlROYUkuhaW5lJTnU15RSGVVMY3NNXR2N9M70E5nbwvh1jpKa0ooD1VQUltGUU0ppWUllGTlke3LIN0dIN2XTkZmgKziNHJqvGQ2mMhsVxHsTSR9cPsfyA4yhqL+SDIHY8keTCRzMIGM4TjSR2PJHpWS2SclvVFFbp2b1t46Rqb62bkwy8a+vZy7fJlHHnuY2ZkhMUrvacmlt8nHTF8BSyMVzPYU09eQJQJfmupk38okxw4uc+n8UR65dYk9e/4N3bKvzLlg13/9m19y+ZFjtE8WUz8rrNkKq0MmcfC+bFlO0aKQhkjJnUkib0ZG0byKIgH4rJz8nTJyphPJnUmgeJeU0D4dvefdDF7xMHzNzdA1B1OPeFi5G2T/K7k89GYpl96r4eaHYW6+28DZ58MsnS6nfdjP5FgNT5w9yo9fusuv3niDX3//LT7//tv89LmXubK2wWLfAMc3N3jttZe5fecxpucmGJ0cYnZ+iqW1RTb2rXLg8F4OHt7LkeP7OXB4nbWNXSwuzzI1N05rVytFVSX4swN4MlJID2aQm5lL0JdBmieVVI8Pb4odT7oFf5GZQJ2BYJuW7H41Gf2JogiBWFpP3D+T9N54sgYSSe+LIW0w+kvgErIGZGS26MgLuWnprmNofIid87s5cPgoV27c4NqNy4yPdXP4wE72LnUyO5DHeCSTme4Chpuz6K3PZKStVNTwk4eWOHtykysXT3Dr5kWWdn+Nwoug1UKk/lUdXQD+xW/+niuPnKB1tJiaiTSqdrmpXEoWq0sFC1JyZpPImkokYzSO7Amh0a+mZFErtgyFWrNQahQKEUJBQjD9XaccdJ220nXaTNcZIyNXHSw9ncXG83kcfbWEM29Ucvntaq68UcGJ9w5/6QAAIABJREFUO7ViN6m61UFXez7n9u7mnRtX+ekjt/nrm4I8yWfXHufGyjp7Jyc5e+QgL7/8HLefepTNAxucOHWMqzcu8/iTj/D0d57iuRe/w3MvPsudZ29z+fp5DhzZy+LyTqbmJugb7aeoqhR3IAWrx47b5yM9PYc0XwZ+tw+f04ndrifZrcSZrcZXrSPQYiCjS4evQyJKaqcMT2sCws8/lPRuCcG+RPxdO/D1bScwEkPWyD3gOe0GChpSaOsLMzY1zfLyIU6eusi1hx/m5Omj9PU1sbE6zMaudnYO5DLcksZoS5Du2lQ6awL01OeyezLCQ4eXuXj6ILeun+Op2zdZXvoaM21fAf/KnIvAv/gllx4+SuNQwb27p/MOSuaN5M5IyJ5JJHs6iewpCRmj8V8C11C2S0/hThX5M/d6xcXCaSthZntdR8uRZFqOmmg5aqBFuHB01sL0LT+Lt9PZ+E4OR14s5PzrlVx6vYKjT9QwsVlEaYOVuppUdg1HuLmxynePHuP1Yw/x2tFTvHriDNfWNzi+usyVMyd54YVnefa5O9y4dV2E/PKrL/L6m9/jzXe+zzvvvSXKS68+z81Hr7H/0AbjU8NEettp7mwhuygXV6oHm8eBOyWF1NQgfm+AFIcHt82GJVmNySHFGpTjqlDjb9LibZJhq4/C1hCFozEWa/0O/B1S/JHfS1pnEundCaREduDt3kbqUAwZg0kEe6VktxkpCqfSOdjC7Pw8+/ad4PzFq1y+cZ29+9fo6Kihv7uKgfY8+sNeeut99DUEaK9MoaXcT0dNFhN99WzsHuXEoWVuXDnJ00/eYG3la4w4iaC/+t+XzvzXvxa6ZYcI9eVQMuiieMZK3pSGtJEY0sdiyZwUoEvJGPvvgM+qyZtWUjCjpnheQ/luYblOOI9lILSpFYO90KaSliM6Bs7bGb/qZuGRVNaeyODocwU89EIRB25VMb63hIomF4GAmvIsLxPhGs5MjvP42h4eXVnjkfUNLm9ucPbQPq5fOst37t7hhZef4+VXX+LNd97k3Q/e5b0P3+PdD37AO++9zdvvvsUr33uJW4/dYN/BDQaGe6muryIjL5Nktx2T3YLVbced4sPrDeBx+nBZndjNZgxGObrkBIxpEmylCtwNKpz1CViqt2Kp2Yo1tANzzVYRvAD/K/G0xJIaicfTth135zZ8AzGk9SUS6JSQ1WqipCmdnpEIOxfm2btxmIdOn+PMRWHUeJcIvKk+l5ZqH5FKB121KfQ2pNNW5ae1Mp2u+nwG2iqYGmxmbXGYU8dWRehLizP/epT+FWvRpn8F/PNfcObyfmq6ghT22imYNJM1psDbtw3/0A6C4wnkTMsIjiWQPSEUIbSULRoonNWQN6WiYFpL8Zye8l1GKpcNVC5rqVxRUbki1Jrl1G+qiBw30X/aytRlDws3/Kw+ks7mY0E2rpYzva+KcHcmaQEtVm0C6SY1bTmZ7GprYb23h8NTE1w+tI/Hrp7nzu2HeeY7T/L8S3f5/luv89YP3uT9j97jg4/f560fvMWrr3+XF15+nqeeeZJL1y6wvrnGwHAfNQ015BTl4fR7sDhtWF12XB6v2GFz2b3YzTasBgNarQSVMQadLx5zkRRHnRxnQyLWuu2iljsbY0mu246+4v4/EnPNFpzh7djCW3B2bCOlLxZ/dyKpHRKyWiyUNmXRP9bN5PQEO2cXWFtf58iJI+zZu0QkUstwX4j50TD7Zps5uNjJylQzI5FSWqszaShNp6Uqm57mUiYHwuxZHODw5hwzE4NfE/hXTvxL4F98adJrujMp6LFRNGUhd1JNSv92UoejyZwQgjI5WZMScqfkIvCiOR3Z43K8XdEE+pMI9CcSGEgkd0JO5oiQksSRPyWcwEigaklG414NoVUprZsqhk8mM3XGwdw5F7PHchhYLCLUkUkgaMKsl2CQRmOVxuJRS8mxm5nubuPYxjJnTxzkyqUzPPHUozxz9w7ffe0V3nn3bT7+5CNRy198+QUevf0oJ06fYGRCMOMdhFsaKCotxBfw4/J5sXlcWF0O7B4XnhS/CNxp82A1WDCq1SiUccj1UWi8sZgKJThDcnwtChz10bgaY8noVhLsUWGufhB9+bfRlH5T/JlcuxVnOApXcxTO9ii8YmAnI6tPR0mPj7LmPEZnhti1NM/S7l3sO7CX81fOcenqGQYGWumJVDMSqWSspZDu+mwaqwKU5zlpKM+gpTqXjlA+vc3FjEQqmBmoY36sja7W0L8BuAD7K+BfmvT6vhwKeu1kDWvIGJYSGI0lOBFP1pSE3Fk5meNJZE8Ii++CKVeTMSzB3xNPcFBOcEhB1rCSgkkNOaMSskfiyRqOIXNoB/kTwiSnhPLZOKrn42lakdG2Kqd3r4axzQyGd5fT1l9CQUkKHrcRi0GGWZNEskaCJ1nDaF8bGytzHNy3wtGjm5y7eJpHb98SgQvm/N0P3+XlV18WfbpYqhzoISMnHU+qG6fXgdlqQq3ToDOZMCZbsdjtInSn24vbnYo92YVZa0SrkCOTxyDX7RCBW4qleMJq0jrUuBvjcIZjSIvIyOxRYarcgqlqC4aK+9GVfkv8KXwUzqYYHG0xuLviSe2Wk96pIbfVRXlLIUvruzh15jhHjxzg8NF9nL9ymivXzzI62klVaZD8VDPZyTIcmiiUSd9CJXuAvHQbjZU59LeWM9Fdw3RPNbO9lcz01dHdWvfvA/7rz3/B2SsHCA/mUzLgIntYS5ZQNJiVkjsrwJaSMyMlMBxHYCierHEZmWMy/L3xeDvj8HUlEuiTkTmkIntERc6InKxBIUWJIrXnQdL7HiR3NIqC8SiKx3dQNrGD8vFthGZj6V3xMbM3zPx6H12D9VTXFVFUnEFBQRr5eakU5KcxMtLJ+EQvs7MjrKwucPjYfh5+7Cavvfk93v/4fd78wVs8++Jdrj58jYNHDxLpiZAa9JPsMmO2GjGY9GgNOrRGI3qzBZM1GbPNgtXuxOlIwWp2YFDpUEmlInClIRq9PwF7uRJ/i570Th2elgTRpLub40UN97VLRI0XgjnB3CfXbsdaG4U9HIOjNRZnJJ6UDhmeJhkpVQbKmorYc2CNm49c4dzZYxw6usGJc0c4d+k4o6NdZKbaMCZuRfnt+4j5xn1s+dZ9bN96H36XlpqiAK01OXTW59LfmMtYax5jHSV0hCu+BvA/NOdf+XBhLv3qQRF45aiPigUnFUvJlC6pKVqUk7dTKkbq/oEofH1RpA8nEhhMxB2JwROJw9UWR2q3lMxBIV+Vk9aTRFq38LsoUru3ktb9JfThHeQObiWr91vk9n2bstGttM87WTrWzeXHj3Do1CoLK1PiWyrDUz0MTHTRPdyG8OdQUwUt7SFm5sY5cvwgTzx9m7fff5sP/vxD3nr/HV587RWevHuHyzevMrMwQ1l1CamZKbi8duwOK3aHHbPVislqwywAt5qx2hw4HF6STXb0Kh1KiQSFIg6tJR5zhhR3tZZAu4n0Lh3e1kSSQ/f8eEavirxhI2ldCvH3QprmaozHWhuNvSEOe0sc9vZ4nC1JJFfHkVygoKg+n8XVRa5cO8fJk/vYs7nI/mN7OH56P0NDHQS8FrQxDyD7k/uI/tP72P7gfWzf9h/x2FSUZLupzPNQleskXOSis8JDd006DZV5XwP476K2L5NxofDyxS85f+OQuNEZmvHTdjCNtsNeqvboKF1Ski8An0wkdSAKf18UgcF40vricXdEk9ojwd8lJdivJnfUQLBfhac1lpT2WPydcSL4QHcsga5ogj2xZHTuwNd8P5md2ynsj6Vh0sHq6V6ee+cGj969xJmrJzhyej+HH9rkwPF11vbvYmS6j4KybKrqStm5a4pL18/z8usv8eFnH/LhZx/xwWcf8YMfvsd3336N23efYuPwJl297VRUFJKVGcDv8+LxenC6PdhdbuwuJzaXFbvLgcvjIdmajEarRK6MR66PQeuOJzlPirdeQ6BTT6BLjbctEUvddkw1W8V0LLNfS3qvCl9EirslAUc4DnsoFntDPLameGytiVjrE9GVRGPMllFQm8fI1Cj7Du5lfWOZXSsL7DmwzpGTB+nvayM7zY5LFY095k/Q7LgPafR/QBLzv+GzKSgOOijPcVGe46Q6z0GowEGoKIXq0px/Hbig4F+1RwUFF6J1oT0qDEB0TBXRsjuV5n3J4vGa6j0aSoQq26yEbCFSF3z4mJTM4SQCfQmkdifg6xRMt4rULrlYmEjvVSJoQKBbjr9DaA/G42mOw90Yg612G97GGFIaY/GFYwg0JVAxaGXqcD2Xv7Of0w8f5MBDm+w9ssb+o3s4cHQPa5u7GJ7opSXSwMjUACfPHePF157ng8/e59OffsonP/2UT3/6GT/8yae88fE7PPr8HU5dOcvyyjxj/Z1EWpsI1daQm5snzsB5fKm4heDNbcPmtuJJdWF2GJBo4kjSRaN0xWHKkeKqVuJvVZPWqSKtS4m3Q4I5tB11+bfEnykdEjxtibgF7W6Jx9kUj7MhHntDAtbGRKxNUvQVcciyt2HIUlLeVEbfyCA7FxZY27PBxv6DHDz+EGcvnBNHubJTk0nRbsMnuQ9H0n3Y5H+KS7eNXJ+WmoIUUcNLshxUFqQQKs8gXJNPXXXpvw5cgCy0RoW7fgJ44QMQznad/rJb1rLkpXm/kfA+A9V7hIqaEKQlkTUWJwLPEYAPJZH+JXBHczSe9kSczXGi//K0Jor+LqVdQlpEQUaXmpQWKaaKbRjKtuJuSMTTkIijOhZHZSxpDTKqht0Mr4fonm2kubeRlq4w3f1tDI50MT41wOBoD3O7pzl7+bQI+71P3+XTv/6UH//8x3z2t5/x8U8+5t1P3+W191/n6Ve/w6Vbl7hw/gSH15fYPTvFxOgoXZEuGhqaycrNx+FxYbQbMNr1mJ061FYZUYotaFNkWAvUuKo1+Ju1pEaU+Ltk+LvkIvDkhij01VuwNcbgjUhwtSZgb4rF2hiNrSEWeygeWygBS0MS5gYZ2rIEpJlR6DNVlDWW0zs8xNyuJQ4cOs6pc5e5eP1Rrj98i6mJIYqzXKSbtovAbXH34ZTdR4r2AQpSVNTme2kUovWaXCLNZQz2hBkb7qS3p+N/FXAD4X3CxKmKkkUJBTOJZAnNgLFEfg88kdSuBBzNUbjbEnA0xWJriBbNm7s5gZS2e8CD3RoRuKH8QbTF92OricFaGYW9OhZXbQK+einZ7Tqq+lPJq08lNc9HaqaHzGwf+YVB6sOVDAx1cfj4fr7z0rN88On7fPJXn/Djv/sxP/nFf+KTv/5zPvjRe3z/vVf5zstPcuvJq2weXGZzfZGp4W46mhtoDIWorqymuLgMrz8No9WELlmL3q5BlSxHYoojVr8NU6YKT5UJX5OJ1A4dvi4Fvm4pKV1SvBEptuZYLA1ReIQya7ccR2s8yeEojKFtmGp2YKmOxVwdj7EmEX2tFHVxItLMGPRBLaXhCnqHh5nfvcTh4yc4e/kq56/d5PS5s4yN9lKe7yXPGUdQdR+uxPtwye7Dp72fwhQldfluOkP5jHTVMTPazsriCJvr80yMf408/A81/KshCPFs1x9puIFGEbiwOCcATyBzNEY8OncPuIT0viRSuxLxtMeJPjylI0nU7NSInNSI4p50yEltl+NuTMRcuR1dyRaMZVtJrowiuSKK5MponDXxIvSMegOBcif2NCtGmwajUYHZrCY9w0tndytnL5zi1Te/y8c//kjU7r/42V/w6d98wg8+fYuX37zLY09f5eK1Y5w9v5/Z6R4GehopKwziFypqNjtOmxOn04vOaEauVaI0ylFbFSisEhLN0WhT5RizFbhq9KS2m/B1avB2y/D2JOHtkuDtlOJoS8DeGk9qrxJfj0IEbqrfjq72QfRV2zFVxGCsiEdXmYi2SoKqKAlpMB59UE9puJre4RHmlpbYPHSAQydOsO/YcZbXV+juaqQ830VZqpSS5D8lTXkfbhH4tynyKgjlu+htLGJmqIXluQGO7JvnzMlNdi1Mf10N/6343OrvTfr/ztnr+2mbyKNx3kHTpo7GfToqV2TkTkWTNRZF9ngc2aMJZA0nERwUTHoSAeEfoz2OtC6p6LMDXQqCPWoyezRkCL6vQ4GvRYKzPg5L1Q7MFdvRl2zBWhWFqXQbxqIHsZZF4aqMw1uhwFtowZJiRm1SIFcmoFDEiyu9oYYq9h3a4Mm7T/Lmh2/x8X/6IX/+U0Gz3+V777zAI09c4PTZdU49tMTFs6vMTbbRWJOH16pDkRBLUkwc0gQpMpmaJJkCiVKGQpiIsclROaXIXfFYctUY8mQ4atX4Ow2k9mnxDchw98aT0iekoEo8EQnuiITgsJ5Avxp3RxKWxmgMoW0YqrdjrNgharihJhFNVSLaMim6Ijm2gmSKQmV0DfYzt7TI8sYKSxurzK0uMTErnN6sobLQSXWmnNqU+8kz/yle+X34NN+kyCujsdDNWKSS5Zlu1neNcHT/Amcf2sfC3OTXAy5sjv6/4kXGez78V7/5BRduHqR5NJO6KTMNa0oa1tWULiTg7/8Wvt5vkzMuFFLiyeiPJ6MvkYy+JDJ6pXhaYsTALC0iFfPTrF4NwS416R0K0tpkpDQm4qiNwVK5neTKHVgqtotiLtmGpXgb9rJo3FVx+KvUWDO16Fx6Ufvk6iRUGglarYz8gkw6e9vZd2w/d158mnc/fZ+P/vJD3v7ode6+8jiXLh/g9MlFblxa44nrG+zb3U19WTp2vYKkqO3Ebt1BfHQCMdEJxCfJkGmUaCwqdC4lOp8MfYYMQ64Mc4kCR4OKlG4tacNa/GMynP2xIvjAgAZ/j0IEnzdhIWvUKGq6AF3QemtDDJbqKBxhCbZGGYZaCZZaJc46I6k1XvJrC+ga7GFuaY7dexaZW5lnatcMEzuH6e6upbbMTU22lMb0LVR47idV/R/wq79BkUdKa0kKs311rM/1s2dhkANrk5w4vMLU1zPpwskPAbhwYvfef5//4y+4/OgRWkazaJhNpnZJSuWuJApmo/H3fVMEHhyOIjgY+wfAhXagjHTBv7XE422OJxCRk92rI9CuwNuYhLMuFmvVDhG0YMb1xQ/irIvDUr4da8UOXFVxpNQmkNYgJTNswF1gwuAxojTKUGklmMwqbFYdPp+drNwAnQMdnL5yitff/z7vfvoO333reW4+doYrlzd54uY+XnzyCHeuLXNiTy81BR5sGiny2GiSomJJiksiPk5CkkyJUq9GZ9dgSFFjSFdgzFVgKVGRXKnE3qjC3anC0y/DPRSPcyAaZ1ccKd1y0vpUZI7oKZi2kjNuInNYR8aghsCAWqyqeVrixdjF3S7H3irH1qDAUacmUOekJFzA4EQ/C6s7WVpfYHHPAnNrC+zcPU5PTy115S5qsyU0ZjxAVcoDZJm+QYb+25R4ZbSWeBlsKmSip1YsqW4uj3HyyArLu2a/job/S8B/yZXHjtIxlUfvXuE5KCN1qwpKFxPInYy6N8slaPhIApnCVMeAhEyhsT+gIKtfhb8tCW9zAv42Kaltchx1caKfNpZuxVDyIIaSrVjKo3DWJaArekD8AOxV0TirY/HWxZMaTiQY1pFWbsPsM6EyStAZpLhcRtL8NnJz/BQWZ9LWFWbPwWWuP3GNJ557lNvPXuf6wye4c/s4bz5/mndfPMWLDy9zak8nlVlWbBoJmsQ4FPGJyBJlSJLkyFUatBYtJrcOU0CDKVtJcoma5AoVxgop1rACR4cCayQOa882nP1R2Dtj8HRKSR/UkDthImfc+KWYyJs0kz9lIX/cQPaAgow+GYF+BelDGlK71PhbNWQ2OcTmycBkJ/Or0yxvLIqnPpb3r7K8d57evjrqyp3U5QjA76c29UFKXFvJs26jwq+gtdjNeHspi6MtLE93cXz/Th67forNr7eIcO+ozx9p+G9+waVbh+mdK2bxfBWz1zPpOSkc2tNRt0dYt9FRKcyxCb3vcUFUFIxrKBjTkdGjEBsK6UKu2iIhuToKY9k2DCXbMBRvQ1+8DWPpDizlsZjLo8VAzVKxA1Ppg5gEf16+FVf1dnw1EjKqbVjTjKiMiRhNEoIZDtqaKxnsb6E9UktjWyWdA01MCie190xx4tQajz5yjNeeP8uHL5/mveeO8NpjKxyeC1GZacKtl2GQJaJOkqCUCnVyJUqdEJ3rMPv1WDK1mAtUJJepMJRK0ZbGY6mXYm2VYmyJwti2BVv3djw9ifh7FWSO6MgZM+DvlZExpCFrVCd+AAXTFopnzJRM6e6VlUeV5E0byR83k9NvIr/DiTC1GhlqYOfSuAh89cAK60f2snFwmf7+kKjhdblSmoL3E0rbRrU/hmJnNNVpShH4cHMhyxPtnNw3w9UzG1w4tcns5NC/ruH/0hWnz3/zd1y4uZ+BhVJ2X6hi4eFshs8JN9CFAoww32agft1M2Zya/HE5+eNK8sc05I/pyBvREexVkdKahC0Ug6lyB6byKCyVcVirE7HXSLDXSnHUSsWrCo7aBBw1sbhDcaQ0JOAPxxNoiiMYlpNVY8ER0KIxx2KzSaiqTGfnTBdzO7vp7qmhojZIYVkq5TVZhBvzOLQxyIu3D/LRK2f4i++e4pOXjvPm7TVO7m4mlJtMqkWBTSPDqFKg12rQGfUojGpUNiXGNA3mHA26PCmGEima4gQUhdEIAVdykwxjOB5jUyzJbfFYmqNxRxLw98oJDCjJGFKLkXv6oJrsMQM54wZyRjXkjSjIGZaTPS40l0wUTCSTP2SlsNNDSVMGXcNNLG3Mcez0YY6dPc6RMyc4deEYAwNh0YeHcuU0BR+kIT2KhkwJ1akSajM0tBa5GG0tZmWyg4MroxxYG2dxppeujsavB/yre+nCHSeh8vL5Fz/n/PVNBhdKWDxXzvyNIGMXfHSftNO0XwCuF++eVy5qKZxUUDippnBCS+GEnuIpMxm9ShzhWEzVOzBWRmGqiCW5KglHnQJXvQZXvRp7rRxLZTyO2kRSmxUEO1RkRhRkR2TkdCSR16Yiu9aIK0OFwRqF1yulrTWfzfURdi920dVdSmGpE39AQ3rQRFNdGpcODfD+M/v48Ssn+Mkrx/nRS8d4+/E9XNropqcmjZKAlQyXCZ89GY+QnqW6UVnVSJITkHsTUWYIeXI0yoI4NKUJqEvjMIdkOFrU2JoF0WBvVWNpjMXZHos7Eo+rI4HUXjnJTVFijp4+qBI/grQeCRm9gruTkjWqJmfCQM6IiZw+M/kdbkqbgvSMtbFxaEW8+nD+2kVOXT7P5ZsXGBxoorbMQyhXSXNwG+GMGJqz5dRnqggFtTQXOBgI5zHZXcNwZyU9baVEmssJ15X/TwC/tvePgI9f8tF3xkHrYSON+w3iSwB1wm2yeQ0V83oq5oxUzFkomTaR0afA0RiDSUhNKnegLxW0XNBwCY46pQjeIqQpRduwVseR1aUnp1srAs+MyMmKyMhtU5PfYCQtV4nTG0t2lobhwQoeOj7D6nIXnV0F5BaZ8Pqk5GSb2TlWy3M3lvnRK8f5yasn+MsXD/PJcwd58/FVbhweZHm0lv7mIsJVOVSW5FBSlkteRQ4Gv4G45GiibFuI8WwhLu0BZLlRGCslJAsfaLMGb7sejygGPB063B0K3B0SHC0JJIdjMDdEoRUqbi1xYprm6kjELTSQOhNIF8APqsgc1ZPRpyfQoSe7xUlJo7AuHGHvoT2cuXSWs1cucvrKZS5euyAeBKgrS6E+V01zcAfh9HvAG7PVhIIaGnIsNBd7aCz1UZXvorLQTUN1DqHqkv91wCcu+xi64CJyQniB10jkuJ0m4XrwqlE84BNasRJacYiPyQqBiqMxGlP1NgwV21EXPoiuOApTeTzJVRJsNVKSqxPQl2zDVh1LMKIhq0tDMKIgGFGSGVGR06alKuKgpNpEXoGa+joPq0vtXLu8xJ7VCG0dmWQXaMnIVNLYkMH5Y5O8/+JJfv7ORf7mtYf40XP7+OjOOm88tsLjpye4fHSCg6uDzE9FGBlqo6u/mVBnNc58O4nuWLY7vs0Oz7eICzyAsiAaS40MR1iFu1mLp1WLp+0r0ZDSocHRJCW5IQFzKBZ1+RakRd9AX7sdy5cfQHLDDlLa4vFHksR0LTCgI0Xoo4dVpNfbKQ5n0zfezdq+NY6cPMaxM6c5eeEiD517iKHBdurKUmnI09EcjKYhEENLtpzmHA31QQ11QQNlqVoKfBpKgxZqir001uQQri37twEX3zT67W/5/Iufcf7aXoYWS9l1rpyFG0Emr/gYveyi57SwWGii66SdNuH5pn3CE0428fqicHy3fKeBjD4JjsYdmIQpkIoHUeR9S4SuL4nCXBGPtSYRR10izlAizvp4XPVxpLZKRdjBiEr8AHLadLSOptPS6SPc5GJksIDTx8d4+OoSe1ZaaOsIUFhuIFTvZW2pixeeOMJnr1/gb986z09fPc5nz67z3u0Vvv/oMk9f3Mkj5+c5cWicpV09jE900DvWQvt4MxmhANocBQnpO0jI2EpS9lb05QmYKpOwVEux1Eqx1suwheVYG2Qk10uwhWUYq+Mw1sSRHEpEU7GdpIJvohWqa/WxGOuiMddF4W6Kx9uaREqnEn+vDmeTEmuNHH+NjZJwPv1jfcwvL7K8voc9+/eLlbbNg/sYHGgnVJZGOE9Pc0Y0DWnRtGbLaM3V0JilJRTUU5GmpcivoShgoCrfSWso/98CXDid/eVJgN/+E1/85udce+QQo7vL2S348GsBxi+5GL5ko/esic6TRiInhNd8zOJdlybhOcg9ZupWzOSPyyie1pI9JOSdW1EV/xmqwm+iK3kQU2UUttp4zJVRaEsewFYbQ26/kfxBE3n9BrK7dWRE1KS1KgmEFbSNZTC/UsvKWpj9e9u4cn6ax27sZt+68L6Jj9omO3Pz9dx54hjvv36dT753no/vHuDjp9f56Ikl3rq1yEtW5QX6AAAgAElEQVRXd/LkhWluXtjJyRMT7FrqItJXQ2k4m4KmbJxlNgxFanTlCkzVCtGMOxs1JNfK0ZXFoy2Lw1idhDUkJzkkw1wrwdEk5OcKrA1SkkNJ6CpjkBVtQVL4wL1GSX0C6rIHMVRsw9Ukwduhxtmmxtagwlwux15kpKyplP6xQXatLrG+uZeNAwfYOHSE9c11+ntbCJWmUpupIpy6jcZADB15CjrytbTnG2nONVOXZaIiw0hZ0ERVnp1wZZCGmq/RLRO0WngTQTiRL/bLfvtP/EYAfusgo7vK2HWmlNnLfkbOWxk4b6T7jJ6OE1pxm7T1kJ5m4b3PdT11K1qqd2vJG0+ibKeW/DEl7tbt6Cu/gTz/P6Iq/DO0JfcjNE0M5VuwVG8jo1tFwbCJ4rFksnp0pLYq8DXJ8DRI8NVKiExmsf9YJw+dHuT0iX6unBvj0ukRlheqaOvw0NGfxuGjg7z+6lU+euMmH718mvef3ssPHtvNWzdmeOXSBHdOj3DzxBCXzoxz7OQY8ysRwl3FpJU68JTaMBbo0JeoMNWqsYW1OJu0pLQb8TTrSa6RY6hMFIEnh+TY6pUIP631gsiwNcixhwXwMpSlO5AWbcXWqCQ5LEdfGYOtLgFno4zksAxddQKmKjnmchX2QgtljRUMjI+yvL4mPl21trnJyt59LK8t09fdJAKvyVDQ4HuQxkA0nflKOgt1dBSYaMmzUJOho8SvoSzdQKjQRXtdLs31X2Pi5V8C/sUXP+PS9X0MzZUwd7KIqQseBk6b6DmtJfKQsBeupPmQksZ9Kho21NStqqjaraB8QUHBpISynRryxxX4O2NxNe8guXYLybUPkly7DWvtdhz1UaRFJJRP28gd1BHolONtTsLdkISrXoK7XoovJKNlLMChU71cvT7N1QujXDk7xPEDbeycLKC7x8/Cah2P3d7kvR/c5sM3HubDl07xwdN7efPWAt+7NMbdM0M8erSXi4e6OXmkj6U9bfSMllPWlIG/zE5yoQFDoRZjuQZLSCsCdzSq8HcY8XeYcAmaXifDVC3BXCvF3qDC22YQoQuaLoB3NqlwNqnRVMShLI3G2arD0azBUifBI5jwUBKaihikRdvRliVhKVfjLLFRFCplaGKcvQf2sf/QAVY21llYWWV+1xy9XY3Ul/qpCQrAt9AYiKKzQEFXkY5IgYnWPAtVAQ1FXiVlAZ049dIVLqA1XPl1fPg/1/Bf//pnnL+yl/7ZImaO5TN2xknvCR2dJ5W0HZPRdEhKwz4poQ0ZdatyqpaklC8kUTKbRNGMAFwlmnZhHSdr4N4+VUa3hNSORHxtCfjahDkwAXgyeUNa7KEd4vyXqyEJT6MwFaoho0VP11weF2/N8OzddZ54eJbLp/s4sreB3XPF7Jwr4eLNWd778BF+9NmLfPLubT5+5Yyo4W8+PM+rF0e5e/r3wJcW62jvz6GkwUOw0kFqlQNriQFzuQFLtZ7keh3WBrWouSntWtI6TaQI8MJKEbZg1u1hFcE+B45G9e80XSiXCmKolqCpSMDbYcbdZsRWLxeBGwTYhVtJLNiGpiQJS4UWT5mL/JpihicnOCI8XXXiKKsb68wsLjI5M05PZwP1pT5qgvIvge+gs0BGV5GGSIFRBF6boafUr6EiXU9DgZ1IXRYtoa8VtAnAhePZvzfpAvBzlzfomylm8lA+wydddB7R0XpEgJ1E3d54avYkUL2aRPWyjKrdMsrmJRRNJ1E8raBk5p5Jzx6WUyAUHUYU5A7JCPYkkhqJwd20DWd4G5m9cgpH9bjDUTjrd5DSFE9aq4TsbjWlg8lsXOjmex9e4IO/uMnzLx3k4qVxjh3r5sChDo6c7OfF75/m53//Br/45bv85Ecv8eGb13n92SO8+Ogad68v8OTlOW6dn+H08WGa2v1klenxF2nxFBnwlJlxVyVjqzJhrdZjDemwhpRYQkm4W1SkRvT42nW4m1VY66VY6pJwNqvIGrCL3TNPqxpHk0L04ULwZqpLRFctDHAa8Ub02BqkuBpl6Mp2kJT/APKSKDSliaJJT6lwk1ddwMj0BA+dPSVegd6zucHkzlmGRvrp7qgjVJJCbVBG2L+FxvTtdBRIiBRp6CgUNDyZcJaF2gwz1RlG6nIshEtSqK8s+LoaLgD/cublt7/l15//nHOX9jIwW87I3nx6D7lp2lBTvRZNzXoM+bP3Uzi3jZL5GBF2/R6d6MOLpoVDdGoKxvQUjGvFcmv+qJL07lgy++NI74nC3fItnI0P4GuLI60jiWC3lJw+GRmROFLCD5LS8AAFfYni9ajrLy/z2T88z8//rzf45GfP8sJb57h5Zy9nrs5z4sI0L715kb//4gP+7//6V/zq13/OZ3/xIt999Qq3nzjMzYc3eOTx/Tz+9FE2j43iz1eidm1BkxKFISjBWqjBW2vFVqnHUqHGWqPBXq/CHpbibJbjaVF+KQo8bUoxpUrrFnJpE8EBE1mDFjL6jLhbFZjqYrA0xKGt3oa/R4OvW42nTZhBN+JvV6Mo2YquJh51SRzawkR8lU4KagsZmRrj/OXzXLh0VgzWxqanGBjspru9hobSFOqzFLSmbxNz8cacWNqLVHQUmWnPd9CYZaUuPVmEXhM0UJlpobIo+O8D/vnnP+fMxQ36Z8oZ3JNP1z4PTevC2lAcJbu2Ub4US8HO7RTPxVE+L6VkVkLOaBy+zq24WoT8MxF/JIGUjmiczVtwNn2b9J4dZA/FkjUQRc5gEkXCRzGiJW9QQU5fEqWjCionFFRNymjZbWDiWBaPvrnKD//haX78jy/z3s/v8OJHV3jkpaOsHOtn/cQQz37vLD/7L+/wf/y3n/CP/+2v+IUA/W/e4M2Pn+XV92/z6gdP8OSrl+mba8CZq8AcTMCepyA5T4kxV4a7yoi1XENyuRJbtQpngxp3ixJ3i1BwEfLwJGwNQqszHnuTUEyRkSKMafXryBoyioUU4XfGuh2Y6ncgKf4TcdpFKMDYG+PwtkjJHjDjbFWgroxGWRwtRumBOi9F9UUMT42w98A6Bw7uZXl1iam5GcbHB+jrDNFU4acpV0UkK4rW7Gjqs6JoypfRViAAd9KYZScUEKALmm6gKmih6t8L/Fe/+jknz67RPVFC70oOHetOwmtaqlcTKV7YQeWy0CqNoXhnEsUzUnHJIK1nB972beJ0qjW0DWPVN7HW309K23bs4W+Q0SvMoSdRPCmlfFZD3W4bNfMWKmd0lE0qaV6x0HPASf9BF+Mn/ey6VMhTHy3z7t9f5YN/uMWbf3udlz45z5knFxnbE2L+YDu3Xz7BX/7yNX75f/6Qz//rj/nP/8+P+Ntff8SPf/kWH/zVSzz39k2OXF2ipieHQJUZV5EKW4ECa6ESR6kGe7kaR6UaR5UKW5WwQqQUTbm3TYWzUYI1FIejMVHUVl9ESaBHQ7BfT+aA4R7wfh3uNinGuu0Y6rYhK/0ztDVbSG6MxtWSIDaPPC1SHC0yTPWJmGukuOp1ZDWmUhIWfPgwC7t3srZnN6vryyws72JmdpSBnnpaqlJpLdDQnRtDW24Moawo6nMktArAC9w0ZjmoC1ipDZipTddTmWGmqvDfqeH/5Vc/5+ipZdpHC+ncFaR11UZoWUP1ipSKJWE9OJ7C2QRKdsoonJTdW3rvSyBrQE5WvwJ3UwzWui14mncQ7E3A0/oAWYOxFE/KKZ1WUDmvpXHNStOalea1ZFr2WBg46mHqXBqzFzNYvJLF0vUCrr01xJ1PdvPkR8s8/u4qj7y1h+VzbUTm82iZyGbt1CDP/+AKP/777/M3X7zPX//6fX70yzf58K9f4uUPH+X0o+u0jpeRWWcnGLKRVmvGW6nHWabBUaYiuUSGu0aNp06NrUqKs15ORq8FX4cGezgRU00U1vpYXELxRBjP6laR3qclOKD/A+ASjLXb0dU8iLF+O8lNMeIAhLtNGPFKwlwThbNVhq1FLgZ7/hYLeW3plDUWMzQxyPzuGfZurrD/0F7WNteYX5hgsLee1upU2oq09OTF0J4XS0NuDLVZiTTlGWnNdxHOdFCbaqU2zUxtQE9luunfBvyfRB/+/4nNk199/necOLtO61A+rTvTaFq2UL+iJ7RHTc2amsLZRApmJBROycUDssLES3pvElkDSrIH1OQMaAj2yMnoTiKrX1ibjSJ/JJGyGQWVO5XULelo22elQ3gE5pCd3qMORk67xXx/6VaQtcdzWHssh6PPV3P6u42ceqmVk89HOPZ0F6OHCmic8VEYMdIwFmD9/BDPvHOJ1z97glc/uc2zP7jKwy+d4Pit3YzsaSKjzoy3XENarYFAyIi/zoC7SoOtVIqlOBFntRxHtRRrZTzusJycASu5Q1YCXRpxicBUu0MEKlTO7E3x+LuUZPRryRoyEBTKpREZlvoo1JX336uldyThFKd248VlBAG4o0UYeJSJ6Zuv2Ux2UyplTSUMTgyye3WBg4c2OHT0AGube5jZOUpvpJqWKj/txTr6C+PpLEqksSCBcIGClkIzLfku6oM2qvzJVKWaqErTUR4wUlmQ8a/7cGGh7KsRCPHSi9At+/UvOH/1EC2D+YQnvYR3mwivmmhYN1C9oqV0QUnhtJy8MbnYDRKmVT1tsbibhQUDOWWTNsqmkskdFBbt4skZiKd4XELVTiX1S1pa95roOmKj62gy3Uct9J+0MnwmmZkrTlZup7PvO9nsfTaT9Tvp7L+bw6HnS9n/bAWrt8qYOJlLm/CCQp+evIiO+ol0dh7r5Ogjuzhwc46Fh/oZ3ddMx3wpZT0+/LU6vFUqvFVKvNVKPNVKXNUKHJVSrGUJWMvjMRbvwFi6HXdYQt6QlZqFNCp3phDs02ELC7Xy+1EUfwNd1YMImpvaLUDXiJLarcDeHIe+9sF7mh2RiMOMtnAMznAcjnC8OJee3CiUm1W4G/Sk1TopbSymf7RPBL5v/xp79+8RLzmNjvXS3lRCU2UKHSV6hksl9JXLaS6SEKkyESl30lLgpi7DSoXPTIXPQIVfS2mqgYqC9H8n8C/uAW8ayPsSuJm63XrK5hWUzasom9dQNqenYEIjTrmkdiaJVxCEPatAREbeoJ6ySQslEway+5LIH06idFJG7YKaxlUDrXsNtO7X0nZAQ/shNd3HdQyfM7HzpoPVp3xsPJvK2h0Pux63snrHycYzAdaeDLL8SC6HngkzdbqA2ulksjuVZLZpKehyUjeRTUmfj7QGA4EGPcEmI4GwDn9IQ0qdCm+tAm+tHM+X4q6V4aqRYCmLQVuwBVX+tzBXRRHsNVAxm0LdroD4hHb2kBFncwK6ygfRlD+AoWYr9qY4PO1JpESkeDqScLTEi0OM6QMasVEiDDcKPtzTnIi7Wfh7KfYWOSntBtLarARCbgpCebT3tTE9N86u3bOiL5+en2FktOd/ANwsAm/Kc1ITsFCeYqI8xUC5T0OxX095/v8EcOFlQgF4g6jhZmoX9RTPyMUpl6JpNcVTOvLHtGT2q8RTF57WJNzNieQPGckb0JE7oCZ/SCidyikel1M5q6JhyUDrhoWOA0YRdMdhJV3H1Aye0TNxxczCo3ZWn3az9oyLxdtGFm5rWXnGyPp3XKw9lcLSY+kceLaa2Yv5NOyyUjioIadLR05nMiUDXrLak0kJqUSoKXUKfPVK/PVKvHXyfy4hGb6wgmRhlLhsG/rSB8WhQ3+HktwhC+WzHqoW/JTOukV/7W6TYKzZjrbiAcyhHThb40Xgvk4ZKZ1ScsfNZAzpRODicGOXAn+7DF+7HG+7Ek+HmtQO0++A59fn0tbXxtj0EDOzY8zMTTI1N834RD9tjcU0VfyhhitoLpISqfo98Ko0M6UeA6UeHaVeNUUpOsrzA19Hw+/NvPz2d82Trx6qO0zTQD4NEyk07rJSv8tMhfC4y7SS3BEpmf0SsgeVZPWrEWbPhXEmT1Mi2b0aqqYdlE9ayOyWkNYRTfmUhpo5HU0rFjo2HfQctTFwyszQWSOjF81MX7cxd8vGriccrD7tZOVp4Ta7jqU7Wva+aObgK172P5/G+p0gB+9WMn0hi9Ci0HBRkC4EUy0qsrssBNuNZLTq8dYLfjkBZ00irtokXLUS3HWCSO9JSIqnXoo3LMPdICFFyLubpLjCQqAlRYCe0acjd9RC3lgy+eNW8kYtov8W/LWwceJtTyLQq/qdaRcGGoWJVUG7A/0qMge0BDoVpHUqSe0URp11pLTqcdfr8dc6KGwqoGe8h4mdo8zNT7JzYVpcepyeHaatsUQELvjwoRIJveUCcBmRKgsdZU4acx1UpZn+CHihCPxrabiwXHTv5bKvTvP9SlgmvH6McF8BNYMpVI2bqZrWUzmnokzQ8gkpucMS8ocV5A+pyepVkCaYuOY4cvvVVExaqJg0kzegILMrgaoZI7VzJuoXkwkvWWlZN9J91MDoeQG8ntELJmZv2lh+ysvm82ls3PWy+LiJ5TsW1u/a2Hs3RTTr60/lsHmnguETaVTNaMnukZLakoi7PpFAq4Zgh55gxIC7QYatJh57bSKWyljsdUlYaxJw1EtxhxU462ViP95cFYcrLMfXpsHbqsLTosDXrsTVlISvQy6u96b3qMkdMVE4YSV32IS/Uy7ukAm7ZIEeJVmDOvJGTQSEOfV2IVdPuLdM2ask2C3D15aIpzkJb6sSZ0iJtUKFt9JGYUs+vTO9LO6ZE898LCzPMTU/zdhEP61NxdSVOGkpVDNYkkR/pYqOCjUdVRbayxz8/8Wdd3Cc6X3fwQKwggQBLOqidyy2L8r2gsViC+pi0csW9F6JwoJGsICdBOtV6e4k6yRZTuyZzEijuMSZTP7KeBxbknUnWY4nseKWmcTOycc7fjLvu8QdT9L4JPtmQsyHT3lfvuTw+/ye/nuebqeKZkM53soSvJVFeCsLqK8upvFzLVzQWvQmEzYof3oWo3he+pfv0h5x0RCuxD1UhnsiF99COr7FNDzz6dRNpuKbzaVxroj6CWHjQhrVPWdEETwzhQi4pwtomCumbVlOYFVBm4iczvUSIjdKmX9Nw9RjGQuvK1j7qpaNb1Vz6d/WiO33+jeVbH1LzdZvadj6Vo3Ymdt818Hamw4iV9U0zufjEGqQgQyqujMwhwqwD5dhHSqlsi9H9OlSdghHc2Sg7MikrDWFio4MVN3ZyDuklLSkUtoqjLPzxA0Ouv5CKgeEKdUCtH2ZotOgrj9D3GZsGS0Q3YHr5ypwTpchpAXXYAHBUdIxWYRlNJfqUDq6/lSqgmkYwkJ/JhVDKBVDUIpBGNsHhB2x+VQ2K6kfqGN0bYSN3YtcurrB2voK00uzjE6G6e/x0upW0uPKY8KXyYS/gKFACaHWCoKNajqdKpoMZXh0xXgqi/BU5uOqKvrXCP5XPH7zHm1hN76gHndETv1IPr6ZDJoWpXhnMnGOpuKdyqVxuhiP4Bo8lI2pPxXbYCae6UJcE3k4x7JpXiwjsKIQaVsRRJfTfr6U3u0Shm/JmX1SycXfsLH5DbvYRl/8mp71d6vZ+mYN578q3KakYe3tatbeio7Rx27q6FuX0yxsmhQOru/Ppro9S1xscQ7KcQ4pxKq9pief6q48LKEyqruF/2xhe5VwZIdwTksWKqGq78ympr8AQ7CImgHByTEX/UAu+mAuzvFyDMJ++j4p+lAOtpEiXNNyPLMq8dI6+6hwfFcRxnA+NQO5mML5VPZK0QrOkT2ZVPWkU9UtwRbJwzlSjj1SQVWgBJWvmKpmNe5gPWPnxjh3eZWLW2ssri2I6+PDYwP0vRC8uy6PcV8GE/5ChtpKRcEHGtR01io/FVz3kuB1n9eG/4KFixn89d//NW989TV6RttoG3bSMmagdVpB10oZwU0l3WsyWueKcQ0LGw5z8IwW0jwto2m6DO9kMW1nFTQJOzdHs3CN5/yC4E2LhdRNpFI7nkjoqpzzb7vY/Jqbza/Vsf11J9tft7PxG2amHsgYvVPK6J0KRm8rGb2pZfCyhuCGho6zFTRMFGMUFjZcEqqa87B1l+McUOKOqKkPq6gLKfCNaHGFFThDMqzC6Q29hVj6irAFS6KH7EVKcQyWYg0XYujLoaYnS4z7ZjVYIkVUCyc29GZjGMgTaxD3lBrXhIraETm2wXKMA8VUCTN0vYXo2rNR+6Vo27LRBaRUBtIx9eZjGyjD3COjsqUUtaeU6iYNnqCbsXOjLF6cE4/eXFpbZH51kbnFcfp6PPjdKrrrchn3pr8QvIxQqxxB8A6HgkZ9KW5tEW5dIW5dPnWVRTTWfV4b/hnB9/1O4Kd/+zc8fvMJbaFWGvpr8Qb1NI3q6D1bxdCGhdA5Ex1zVTSMKPFGVDQMa2karaRxVEf7gpmxqy2cfdDH9K0A3atW2peMIoElIwIdK0Z6z5sJb9s5+6iNufs+xm7YGdjU0b5aRue5UoauVTJ6vYax6wbGrpsZ27Uxvutk9mYDU9caCZ5z0DSuo65fhbOnEkdXJZY2FWa/AlOrHGtAha1Dhb65DGu7ktpeLeb2CvStpZjaZTj7NdQFdXiGavCO1FAX0WLqLqeqrYDakJrWWRuOsBpjdzmGrjL0gnNjTwXOsI7akBb7gAZLnwpDZwVVbaUY2mXomopQNxSgbSyiurUYQ6AEjS8HhSsbtbsAdX0J6joZ1V4d7l43oyujTJ0dZ3FllnOba2xf3+Hy7gb9vV78HhVddbmMedMZ9xcxFCgn7Fcy0Kih3aGgoaaUem0x9boi6nUFOIXe+q8k+HNBdUHsqOBC6q/+5u949MZrTCzP0D3WQftYI12TXrpnXCLtY04aQ1YaBmw0h134h3z4hxvxhdx4w24aRxponWimdbKZlvFGWieaaB5toGHIg2/IQ8Owh6ZRDy1jHgLTPtqm3finammZtNA8YaJl0oh/xkxgzkpgzkb7XC3ts3UEZuoJTHsITPrwj3tpGfHiC9fj6nFS31NHXVct9V11OAI2bH4LjoCd2nYH9d0ufANePP0eXD0unF11n1Df68Y94BWp76unrteJo8uGs9eBq9+Jq89BXY8dZ4+dul67mBbzeh04e2w4uiw4Os3idil7uxGrX48tIFxFrcfeVoWjrQZnu4n6LjuNfW6aen00dPtoCwYYnBliammCtfVldm7scPPBHW7eu8LoSDuBBi1ttkx6LSfpdaYy0FxEsFVJX4OGNrsCd2URNnkuFpkUQ2kqlcVp2I3qzxmWCer+EsH//n9/wLd//w9565vf4MlXXuXJ1x7xyruPePIbezx+Z4+LNy7QNdxN51AvkZlxxpcXmD63ysTqCoOLi4QWFgguzDOwMCfSNztNaGGe8OIikaUlhpaXGT+/xsT5VabX15jZWGFqY5HJjVkmN2aY2hSYZmprhuntWaa355nZXmR6a4nprWWmN5eZ2lhmcmOZiYtLjKzNMnR2moHZUfqmRvCH+2jo66Ql1Ef7UITusRGCczME52bpnZ6ia3yCzrEJwgtniSwuiwjxgdlZAkMRXB1+2gb7aRvso2mgk4aeNhp6/FF6/TQPBGgJduAPd+KPdBKIdNI53EPrQBvNfS209LcSEJY4hzroG+0mNBlkcCbC5NIk02dnGJubYHR2QlwtE9rujcsXuH7/Onee3ufW/WuMj3cRaNTSasug03iMDlsSPQ0F9Lco6PGqabXKqdMWYpZlYyjNoKpQgio/GUu14l8m+Acfwl/89O/5s//23/nBX/457/30fd7/6Xu89z++zw/+8nu8+zvvMjQ7xvDsJCtbW2zdvM3V+w+5cv8Jm7cec3H3MWtX9zi7c4e5zRuMr+6wdOkOa9cesnJlj9Wr91m/+ZDN2w+58uApu4+esvv4Edce3+fak3tceypwl91X7kd59QHXX3vI7quPRK482WPrwV3W799i7fYui7s7zFzaYPjcCuHlRbqmJ2mfHKdvYY7BtVXG1zcZW99h+PxlwqvbDCxtEDy7ydKNRyxef8T87gPmrt5nemOH0OwMTb1dRGYnCE6N0jE4QEt/1ye09nfRHu6jezhE//gg4elRBmfHGZqdYGBskL6REP2jYYamR5lZnmN+bZHl9RXWNs+xcXmT7WuX2NgRVsYusLq+xoWtc1y+sc2th7e483SPG/euMDHeRXujDv8LwdutSXS68+hprKCjXkmjSYZVkUtlYRqaPOEMu9OUZp7CWFnx6wsuHBDw7Dl88DH848efHgUSHal/yAd8wHf/4++JG/Bmlle5cnuPO0/f5N6rb3P78Ve49/Rb3H74b7h65+ts7r7D2s4bLKw/ZuvWV9m5+y4Xrr3FytZT1rYfs371KVfvvsnNR29x99V3uP/629x/4y3uf+nLIntffpu9L7/D3lvvsPf2V7j/1jvcev0Nrj55wsb9+6zeusnc1SuMbWwwdPEi/csr9Cwt07GwSNfSWcLrG0xd22XxzgMmLu8xvPmA8IV7DKzdInj+DnO3viwyfeNNJq+9xuTmdYYXFuiKBBmenWJkboq+kSHagwMv0U9nOCTmR6YmGF+YZ3r5LJOLiwxPTTM4McnQ5BRTC4usXtzg/OYWGzs7bF+9yuXda+zevMHNO7e4fvsGl65eYkc48fneNe48visKfv3Ojih4h+AubMuk03icgCWRNmcOHZ5y/M4KPPpSqorTKEk9SWHSUXITDpF56iBVqtLPEVz0DhbqdUHmF234c3j2MXzwDP7vR/DBc8TNTx+KLsXP+IcPP+A7f/B7jM/Nc/biJnefvMHD17/Crcdvcvn2q9x9Igj+21y98w1R8POX32B5+ylbt99h4+ZbLG4+ZHTpKkNzW4yfvczCxk1WL98Va4ade0/Zuf+Enb3HUR485fKDp+w8eIWdh6+wvfeEtet3WLy8y+T6NkNrFxhYWqF7/izdCyt0LSzTvbRK99IavcsXGFzfYe7Gfc4/+hKLt95g9tobTF1+lfFLTxnffszY9iNGtx4wePEOwbXrBM9eIDg7Tc/YID2jEdEJrbQAABSOSURBVNHCe0cH6YyE6BoMi3SGg3SEg/QMRYhMTjCxuMDs6gqTCwui2OGxcVHwyYVFls5fYGV9nXNbm1zY2RbZ3r3KLWEf26M9du/cYPf2Ne48uMXe04fsPX7MzVu7TI5Etyn7bXm0GU/TZEym0ZpFq7OUFkcFrpoSFNlnyDgeQ+qRGJIPx3D6YAxqWdGvI7ggerRJ//g5fCQI/+LAH2HH+v60zM+eP+f3/9N/Zn71PNu7t3n7m7/NV3/r34lWfunmE3bvfZXr93+T63vf5ObD3+TGo29w8fqrnLv2iLM791jYvsX0+jXGz136hLG1bcbWthhd3WBkZZ3hlYufYWj5IoOCgGcvEFmKEj57gZDA8jrh1U3C57YIrm0RPn+JkY1rDF28Qnhth+nL97n82jfZePguF/e+zsU9IfwaF+59hfmrT5jcvENk9TK98xfonJwlMDqIf2iA5lAPDf2dNAd76BgO0TcxQu/4MIFwP/3jw0SmJxhdmGV6ZYm5tWUmhT7L8CADw0OMzc6wcG6Vs+sXWNqIsrhxgZVLG2zfus6dVx5x/7Un7N6/zc6Nq9y4e5OHj5/w9PGb7N3eYzIcpt1tpcVehrfmDFZVPDatBJc+l1anirrqUmTS06QdiyHt2EHSjh0i5VgsmopfycL3Z9sES4/+Em3+heiC3Qti7/8SLP/bv/sfGJ9dZOncBncfv86D197iyu0HrF+5y/ntPa7cfJvLN7/E9vXXuHrvTdZ39zh/9TYrO9dY3LrE7Pom0xfWmRLZYOrCJsNLq4TmFgnNLhKcWfilhGaXiMwvE5lfJbK4JhJePEdIYOk8waVzYiEYWt1icHmT8NIGExevc+H266xcfcLZywKPOXv5EWcv77G4dYvZi1cYX11ncPEsfdMTBIb7aY100TQQoKG3lcY+P23hLnpG+uke7sPf3053pJeBkSCDE4PiEufUwhSTcxMMCm33WITJ2XHmV+aYX51nbi3K7No8y5urbFzf5tr969x8eIvdu7ts7Fzg8tUN7ty6yd6tPW7v7DLW10fAZaHFIcNrSsGiTkAvT8SqzaLJocSlL0eWnUjq8QOkHjtE6rFYJMePoqko/1UsXJBSkPhTwYUcwcr3LV0QPWr/8E/P4bt/8IeMTM7QExxkdHqe6YUVRqfmGRybJTIyz9jUKmNTy4xOLTI5d5bx2TlGZ6YYnBghPBYhNBIiNBImNBohNDoo0hPqp6OvS6S9rwuBjr5ukc7+bjoHeugO9tEbCtIrtKGDYXoHw3RHwnSEQnSEQwRCQToiQtU7RFdkiM7wEP0jkwxNLxKZWCA8Ok94dI7w6CyRsWkGxyaICD344TB9g710hQIE+hpo7XbTFHDia7WJtLQ76ejx0tHtobnVjr/NSUdHPb09DYSDrQxFAoQHWgj2NRHqb2Yo3MbIYDvDQ+0MDQYYHAoQEcLhdkZGuxif6GV6JsjcXIjhIT8TY+0szoRYmR1haTzIUJdXPHCv1VlEo12CvfIM1bIz6OVpuM0yHNWllGUnknLyICknDiM5EUfyiV9L8H37/TQURmsC+6ILHbkPhc7cs4/4oz/5U56+/gY37tzj7oPH7D16hbt7j3jw6BUu7VwjMjhKc0sLDY1emlt8NLe4aWyqxeu14K434K7X43Ub8blNNHjMNHgseFwm3E4D7rpfhhGPS8CE12XGW2/B67bicVupqzNjtxuwOQxY7XpstUYctWYctRZqa4XnDlwuJ556F976+ihuFz6Pk0avgyaflaYGM00NBpob9bQ01dDo0+GtV1LvrMBpL8NVW06DW0WDS0mdtRSXtRSPXUZznZKAV0dHQxU+u4wmp4LWerWIv14tPmvzahHwv6DVoxEP7Ak0VNEXMBFo1NDtryTSbWW418lgp41wwIAgtt+VTXNdMk59Mnp5MtWyNBw1JZi0hRRlnSE5/hDJ8bEkxR8hKf7Yr2Phnwq9H/tE8BfW/ez5cz78+CM+ePYhf/2//o4f/Ph9/uSHP+B77/2Q773/Q/7kz77Pez9+n+9+9zvMz0zhtBkxVCkx6RWYDRWYakowVBVg0OWKGHV5mHR5GDVRTJp8zNoCEYuuEIH99H5o0hRgVBdg0hRRo8yjSpGLTp6DqjwLlSwbpSwLpSwblSwHjSwPbUU+WnkhGlk+lXLhz5RiUJdi0pZirizBVl2EvaYAhz4PhyGHOnM+XkcRHnshLnMOtup0LJWpWKvSsNdkYKtKw6hKwqKR4KhMo16fhc+cJ+LQplJXlUF9jZT66kwRjyEbEWMOHmOO+L7wjqs6A58pB7+ziNbafDrcRfQ1VYgTK8EWBSG/koArl7Z6Ka2uFOrNaZg16dTIM7FXl2DUCIInkhx/mOT4uC9G8E+ER3BG+pSPXniiCTvZ93lG9EdwaPiLH3+frbUFao1qtBU5VCqy0KuzMKgzMKjTMWnSoqhSMSokVJclUlVyhprSRAzlyZhkKZ9gLJcgIpNgFChPQV8qwVyRjib/FIrck6gKTqMqOIOq8AzKwjMoCs6gyD+DqiAJTZEETVEKqvwk1PnJ6ApTqC5NxViRhkWZhl0jIMGuScSuTaC2MhG3IQWfOZ16vQSL8gQ2dTwOXYLYcTLJj6Evj8OhPkV9ZSI+fQqNpnQaDKk01KTgq5aIoRB/mUZ9KgL12jM4lfG4tQk01khoMabSbsugy5lJrzubYEMuIWEZ1F9ET4MwDBMET8NjzcRWmYVRnYPTKMNSWUZJdjLJJ2NJPhkVPDH+GGrZr9yG78v7i6GwPULwTYn+CHJ/9ELeD3nGPv/EM/EcqJ/xkz//Hpvn5nGYVGjk2WgVUnSKNCoVKVQqkqlWJqFXJmNUJGOQJVJdcprKolNUFZ6ipvg0+pIzIgahAJQmYixLEjGVJ2Eql2AoTcZSkYYmPx5l7gnU+adQFySIqAoTUBYkoMwX0oloC5PQFiWjyk9Ak3+GyqJEasqSMcklWFUSHJpkHJozOLSncWjjqdWdwlV1Bp8pFa9BeH4Kh/YUTt1pbOqTmOVHMZTHYlfHi+8J7zSa0vAJhUQvwVeTjK9GQoNeEP5TGvUpNOlT8AoFSnMarzaBhspEmqoT6bSk0u/IIFSfScQnZbA5h0F/Pj0N2XR4smh1SfFYsrFV5mBU51JnqMAqCi5BcjIOyckjJJ88StJJQXDZr9pp+0Wh93M+FTwq9r6n6TN+xj6C14rgqiTsfP3xT77HhQsLWMxqlIpcVMosVKoMVKpU1KoUtGoJ1UoJBrkEfXkSlcUJaAtPoysUhE+guvgM1SWJ1JQmoS9NwlCWjEEQWrT2qIWbKjJQ559GkRuPqiABVWEiyheIFl6QiKogGbVo4RKU+WfEAqErSqRaKEByCRaVBJs2Cbv2DHbtaey6eGyak9g08biNKXhNadRVJ+OqkVCvT8FZlYRNcxqLOEQ6TW1VEm5jKl5zBh5jGm5DKm59iojHkIpHn4r3BQ2GNERqUvFVSfBWJuHWJuJRn6bbmErElsFgXQbD3gyGm7IZbH0huFsYhuXjMedjq8zFpM6jziDHqiunLDuFtFNHST11jNRTx0k5dQJtxefNtO2r+s+EguDRCj1amQvV9sf8k+iaFBX6Z6LQQp5w2tuPfvJ9zl1cxGTRIlfmI1flohBuBVJnoFSno1KnUalKF3ucNeWp6IqT0BQmiuiKhAKQTGWJhKrSFKrLUhDeqSlPQy8gS6e6LA2jXIoq/wzy3NMoCwSxk1G8QF6QhLwgGUVBCqqiVNTFqSgKksT3NMVJVJVL0CtSMalTsWpTsGqTsWoTserOYFafxqiMp04QypJFvTEDt0mKxyzFpU/HUSXBqk3CqkvGXp1KnTETtyULlykTlyGTOn0GLoNAJvWGTNz6KF6DFJ9BSqMxSzxO01OVjlOdjFOeQJc+k0FLNkPObIY92Qw35THYWkSPL5+OeqGNL8VjLsamy8ekyselV2DTySjPTiX91FHS44+RHn+ctC9KcGG49tkWPGrp0a3NwpF+whycEEb50Z//gI2tc9TVWzEYNVhtlVhsGmw2NRaLAotJjs0op9agwCn84yvLMatLMKuLsWpKsGlLsWpLselKsVeWYdeVYtOWYNUIz4ujaV0JNl0JVl0JZk0xRlUhRnUhBnUhelUhemUhRlUxJk0pZk0pBiGtLMSkKsIifEdXgr2yhNrqEmprSnDqS6jTC2EBtTU51JsL8NlK8FqLxdBnL8NnK8VrLcFtKY5iLcFrK8NnL8dre4G1HK+1HJ+IDJ9VRoNVRuMLmq0yBBrNZTQYS2gwCKc5lNNrl4lO/gNuGUGfnGCDim6Pgs56JYE6FS0OFU12FV6TEp9Zi7NKiTw7ncyTR8k8eYyM+OOkxwsW/gVU6dHx+cvdNiG+P24Xp2he9OOj07M/+Ysf8cqrj1hYnGFmdoLFpRlmZ8aYnxtnbDhIX5cff6ObBlctPqcdt9WMy2yk3mzAYzXitRrxWIx4rAZcpiqcei32KhUWrRyzpgJblQKzthyXcP2zpZJavUpMC3kCJk05JnW5+K5Fp8CqU2BSV7xAjkmtwKwRUGLRCN9VY6vUYheokmOvKcVeU4zDUIJDL1CKQ1+GQ19OrSGKEHfUyH6OChw18pdQ4KhR4KhWUFst/wRntRxntTA9GqVeL8etl+M1yGkwKWgyK2mxqGg0KkR8RjleYwWNFiVegwJXlRyropSKjBSyThxFevIY0pPHyRAFL/vXt+H7kzLRqj36+6ctwC8K/rd/9z/Fi1///e9+m9/9ve+I10R+5zu/w3e+/du8/dYrbG+uMhLsptNbR4vDTKNFT7PNSFutmXanhYDTQpvDTKvdSF2lEpuyDGN5IZVFOWjzpegKstDkZWKWF+NQl2MoL0CVky6izE1HkZOGIjsNZU4Gqjwp6rws5DkZyLMzo+RIkYsI+VlU5GQhz81GkZeNIj9DbAoUBRKUhRIUhRLk+RIq8pI/gyw3GVmO5OdIQZaTiixHCPfjQjqaV5Ej4WXkORIUORKUuSmociWo81LQFqRSVZROdXEGuoJUEU1+Cpp8iTjCEJ6rc9OoyJRQkBhP1smjZJ08RtYLwXXyL0TwqLwv2/Q/J7gwJ/fRxz/j4+eCv/n+xOwznn30f/j+D/4Lb775gLNTg0Sa3XTY9PhNOnqcJgbcNoJuG/0uCz21RjptNThkhdTkZaBKT6Is8QSFJ+PIPxFL/ok41OnJVOdmIE9JQBobEyUuhozYGDIOx5AZexDpkUNIjx4mPfYAabEHSY09JJISexDJYYFDJB86SPLhAyTFxpAcF0PykeilMinHYpAcjaaT4mJ4mcTDMfxrSHpxj4lwl4kkLoaUuOgiSPqxGDJPxCA9eYCMYzEi6UdjSDsawyfPThwi/chBMo/Fkh1/jOyTx8k+eQJp/AkqFV/AsGxf3F9N8P0J2Oc8f/4hzz76gI+fC37nH/LR83/g/R//V9780gOWJ8OM+310W6tpN2oIuy0M+xwMemyEXCb6HHq6rVX4VGXYS3KpyUpBkRxPSfwRCo4dpuhEHFWZqVgKctCkJZF9KIYsAUHoQ1GkQjr2IFlxB0k/FEPaoQOkHT5A6uEDpBw+QPLBGJIOxHAmJoYzQnjwJQ7FiAVALAT7ohyJIfXoAZGUIweQxB38OQ4hiRMQ8oXn+0QLkHAz0T4p4reE7wmLH1ExM44fQHryEFmnYsk+HSfGhXTmiYNknBCeHSD7dCx5Z46Tm3CC7FPHyIoXOC6KnXnqCxZ8X/jPhj9fpQuC7xNdQY86OAii/4z3fvTHvPb6PZYmQky0NdBfaxTFnWitZ76zkdl2H2PNdYTqzfTaa2ipUlAvL8ZcIEWbdgbZmROUnT5G2aljqFMSMeZK0edkUJ5wAunBGCQxMWQc+EXBMw4fIF0g9hDpcYdIiztEqkDsYZGUfaFiD4g3CAmW9zKS2AOIfCLyIVLiDr9ELClxcS8Q8oXn+xxEKCCCyFGEuFBwDkYRFz8OkXb8MBknY5GeOkp+0imyBVETjpN1+ijS+DikQkFIOEpuUjw5QnWecILMhONkJpwgI+Ek6QnxqGUlX0Qb/lmJP5v65wSPCi8I/tHH/yiuuf3Ze3/Eg4fXmYp0Mdrqpb/OzECdifFWN7MdjUyLgrsIu6301RoIGHU06uQ4ZYUY8zPRZSajlCQgTzolWrYhT4q5MAddZgoFx2NJEwR/YeGZh2OQxh1EGneIjFhB7IOi2Olxh0k7sk8saUfiSD0SR8qRWCRxh0UrTY49yKccIjn28GeQxMYhiTvyKbFHkMQejSLmC9/a5xCSIweRCLWCEAoF4cghUo4ejnIslpTjsaSeiCM9/iiZp0+Qk3ga6el4pAknyTwt9MCPkHHqCJkJx8hKikeaKAh8nNSEY6QmHCcl4QQpCSfRVHyBbfhnhd5Pfb7gwuLqxx9/ILbnP/zhH/Pw4U3Gwz2EWhvo9dbR63USafEy0tbIcFsDkWYPAw119LoddNXZaLMZadDrcGkV2BVl2BSlmMsLsVYUU6eV461W49LK0RfnitdVyjMlVGRIqMhMQSFNQ5GVTkVmKrLMNGTSDCqkmciyXiDEpVJkWVLKpZmUSTMoy8ygNCP9JYR05ktIKcvM+jmyKcvMeQkhLY1+T5pOmTTtE0qFdFYG5VmZlGVnUpYjpSwni/LcbCryc1EUFqAoLESWn0dFQS7l+dmU5mZSlpeJrECKvDiXiqIcygqyKcnPekE2xfnZGKu0//8tPNpxE6z9I95/7095+61XObc8z+zoEDMjg8wODzI/MsTi2BBLo0MsjgyyMBJhYTgihrODISaDvYz2djLcHWAq1MNIbxsjPW1MBjuZifQyFepmtLeNcEcTQaGp8PsY8DcSCjQTam9mwN/EgL+FoN9PsO2XM+D3I9Df6qev5WXa6GsRCHxCf2s7A5+hg4FWgU4GWrsYaOmKPve3MuAX/v5m+kVa6GtrFekP+BFpD9Df3s5ARwehri5CPT0Eu3vo7eikt6OdnnY/XYFmugPN9Ha0MNAdoK+rjZ6OVrraW+kSQjHuZ6Cvm/8HhLpNqL03K0wAAAAASUVORK5CYII=;" vertex="1" parent="1">
          <mxGeometry x="80" y="40" width="91" height="86.6" as="geometry" />
        </mxCell>
        <mxCell id="CVMzIMqjBqlr0pFYdlRC-3" value="&lt;font style=&quot;font-size: 14px;&quot;&gt;I&lt;sub&gt;1&lt;/sub&gt;,T&lt;sub&gt;1&lt;/sub&gt;&lt;/font&gt;" style="ellipse;whiteSpace=wrap;html=1;fillColor=#ffe6cc;strokeColor=#d79b00;" vertex="1" parent="1">
          <mxGeometry x="260" y="40" width="50" height="30" as="geometry" />
        </mxCell>
        <mxCell id="CVMzIMqjBqlr0pFYdlRC-5" value="&lt;font style=&quot;font-size: 14px;&quot;&gt;I&lt;sub&gt;i&lt;/sub&gt;,T&lt;sub&gt;i&lt;/sub&gt;&lt;/font&gt;" style="ellipse;whiteSpace=wrap;html=1;fillColor=#ffe6cc;strokeColor=#d79b00;" vertex="1" parent="1">
          <mxGeometry x="260" y="140" width="50" height="30" as="geometry" />
        </mxCell>
        <mxCell id="CVMzIMqjBqlr0pFYdlRC-6" value="&lt;font style=&quot;&quot;&gt;&lt;span style=&quot;font-size: 14px;&quot;&gt;I&lt;sub&gt;n&lt;/sub&gt;,T&lt;sub&gt;n&lt;/sub&gt;&lt;/span&gt;&lt;/font&gt;" style="ellipse;whiteSpace=wrap;html=1;fillColor=#ffe6cc;strokeColor=#d79b00;" vertex="1" parent="1">
          <mxGeometry x="260" y="240" width="50" height="30" as="geometry" />
        </mxCell>
        <mxCell id="CVMzIMqjBqlr0pFYdlRC-7" value="" style="endArrow=none;dashed=1;html=1;dashPattern=1 3;strokeWidth=2;rounded=0;" edge="1" parent="1">
          <mxGeometry width="50" height="50" relative="1" as="geometry">
            <mxPoint x="284.5" y="126.6" as="sourcePoint" />
            <mxPoint x="284.5" y="79.6" as="targetPoint" />
          </mxGeometry>
        </mxCell>
        <mxCell id="CVMzIMqjBqlr0pFYdlRC-8" value="" style="endArrow=none;dashed=1;html=1;dashPattern=1 3;strokeWidth=2;rounded=0;" edge="1" parent="1">
          <mxGeometry width="50" height="50" relative="1" as="geometry">
            <mxPoint x="284.5" y="227" as="sourcePoint" />
            <mxPoint x="284.5" y="180" as="targetPoint" />
          </mxGeometry>
        </mxCell>
        <mxCell id="CVMzIMqjBqlr0pFYdlRC-10" value="" style="html=1;shadow=0;dashed=0;align=center;verticalAlign=middle;shape=mxgraph.arrows2.arrow;dy=0.58;dx=18.63;notch=0;" vertex="1" parent="1">
          <mxGeometry x="181" y="70" width="69" height="27" as="geometry" />
        </mxCell>
        <mxCell id="CVMzIMqjBqlr0pFYdlRC-11" value="" style="html=1;shadow=0;dashed=0;align=center;verticalAlign=middle;shape=mxgraph.arrows2.arrow;dy=0.58;dx=18.63;notch=0;" vertex="1" parent="1">
          <mxGeometry x="181" y="219.43" width="69" height="27" as="geometry" />
        </mxCell>
        <mxCell id="CVMzIMqjBqlr0pFYdlRC-13" value="&lt;font style=&quot;font-size: 14px;&quot;&gt;I&lt;sub&gt;1&lt;/sub&gt;,T&lt;sub&gt;1&lt;/sub&gt;&lt;/font&gt;" style="ellipse;whiteSpace=wrap;html=1;fillColor=#ffe6cc;strokeColor=#d79b00;" vertex="1" parent="1">
          <mxGeometry x="380" y="30" width="50" height="30" as="geometry" />
        </mxCell>
        <mxCell id="CVMzIMqjBqlr0pFYdlRC-14" value="&lt;font style=&quot;&quot;&gt;&lt;span style=&quot;font-size: 14px;&quot;&gt;I&lt;sub&gt;2&lt;/sub&gt;,T&lt;/span&gt;&lt;font size=&quot;1&quot;&gt;&lt;sub&gt;2&lt;/sub&gt;&lt;/font&gt;&lt;/font&gt;" style="ellipse;whiteSpace=wrap;html=1;fillColor=#ffe6cc;strokeColor=#d79b00;" vertex="1" parent="1">
          <mxGeometry x="440" y="30" width="50" height="30" as="geometry" />
        </mxCell>
        <mxCell id="CVMzIMqjBqlr0pFYdlRC-16" value="" style="endArrow=none;dashed=1;html=1;dashPattern=1 3;strokeWidth=2;rounded=0;" edge="1" parent="1">
          <mxGeometry width="50" height="50" relative="1" as="geometry">
            <mxPoint x="434.5" y="122" as="sourcePoint" />
            <mxPoint x="434.5" y="75" as="targetPoint" />
          </mxGeometry>
        </mxCell>
        <mxCell id="CVMzIMqjBqlr0pFYdlRC-17" value="" style="ellipse;whiteSpace=wrap;html=1;" vertex="1" parent="1">
          <mxGeometry x="370" y="125" width="130" height="57.5" as="geometry" />
        </mxCell>
        <mxCell id="CVMzIMqjBqlr0pFYdlRC-18" value="&lt;font style=&quot;&quot;&gt;&lt;span style=&quot;font-size: 14px;&quot;&gt;I&lt;sub&gt;i&lt;/sub&gt;,T&lt;sub&gt;i&lt;/sub&gt;&lt;/span&gt;&lt;/font&gt;" style="ellipse;whiteSpace=wrap;html=1;fillColor=#ffe6cc;strokeColor=#d79b00;" vertex="1" parent="1">
          <mxGeometry x="380" y="137.5" width="50" height="30" as="geometry" />
        </mxCell>
        <mxCell id="CVMzIMqjBqlr0pFYdlRC-19" value="&lt;font style=&quot;&quot;&gt;&lt;span style=&quot;font-size: 14px;&quot;&gt;I&lt;/span&gt;&lt;span style=&quot;font-size: 11.6667px;&quot;&gt;&lt;sub&gt;j&lt;/sub&gt;&lt;/span&gt;&lt;span style=&quot;font-size: 14px;&quot;&gt;,T&lt;sub&gt;j&lt;/sub&gt;&lt;/span&gt;&lt;/font&gt;" style="ellipse;whiteSpace=wrap;html=1;fillColor=#ffe6cc;strokeColor=#d79b00;" vertex="1" parent="1">
          <mxGeometry x="440" y="137.5" width="50" height="30" as="geometry" />
        </mxCell>
        <mxCell id="CVMzIMqjBqlr0pFYdlRC-20" value="" style="endArrow=none;dashed=1;html=1;dashPattern=1 3;strokeWidth=2;rounded=0;" edge="1" parent="1">
          <mxGeometry width="50" height="50" relative="1" as="geometry">
            <mxPoint x="434.5" y="229.5" as="sourcePoint" />
            <mxPoint x="434.5" y="182.5" as="targetPoint" />
          </mxGeometry>
        </mxCell>
        <mxCell id="CVMzIMqjBqlr0pFYdlRC-21" value="" style="ellipse;whiteSpace=wrap;html=1;" vertex="1" parent="1">
          <mxGeometry x="370" y="235" width="130" height="57.5" as="geometry" />
        </mxCell>
        <mxCell id="CVMzIMqjBqlr0pFYdlRC-22" value="&lt;font style=&quot;font-size: 13px;&quot;&gt;&lt;span style=&quot;&quot;&gt;I&lt;sub&gt;n-1&lt;/sub&gt;,T&lt;sub&gt;n-1&lt;/sub&gt;&lt;/span&gt;&lt;/font&gt;" style="ellipse;whiteSpace=wrap;html=1;fillColor=#ffe6cc;strokeColor=#d79b00;" vertex="1" parent="1">
          <mxGeometry x="380" y="247.5" width="50" height="30" as="geometry" />
        </mxCell>
        <mxCell id="CVMzIMqjBqlr0pFYdlRC-23" value="&lt;font style=&quot;&quot;&gt;&lt;span style=&quot;font-size: 14px;&quot;&gt;I&lt;sub&gt;n&lt;/sub&gt;,T&lt;sub&gt;n&lt;/sub&gt;&lt;/span&gt;&lt;/font&gt;" style="ellipse;whiteSpace=wrap;html=1;fillColor=#ffe6cc;strokeColor=#d79b00;" vertex="1" parent="1">
          <mxGeometry x="440" y="247.5" width="50" height="30" as="geometry" />
        </mxCell>
        <mxCell id="CVMzIMqjBqlr0pFYdlRC-24" value="" style="html=1;shadow=0;dashed=0;align=center;verticalAlign=middle;shape=mxgraph.arrows2.arrow;dy=0.58;dx=15.55;notch=0;" vertex="1" parent="1">
          <mxGeometry x="320" y="140" width="40" height="29.43" as="geometry" />
        </mxCell>
        <mxCell id="CVMzIMqjBqlr0pFYdlRC-25" value="" style="endArrow=classic;html=1;rounded=0;exitX=1;exitY=0.5;exitDx=0;exitDy=0;" edge="1" parent="1" source="CVMzIMqjBqlr0pFYdlRC-17">
          <mxGeometry width="50" height="50" relative="1" as="geometry">
            <mxPoint x="500" y="150" as="sourcePoint" />
            <mxPoint x="550" y="90" as="targetPoint" />
          </mxGeometry>
        </mxCell>
        <mxCell id="CVMzIMqjBqlr0pFYdlRC-26" value="" style="endArrow=classic;html=1;rounded=0;exitX=1;exitY=0.5;exitDx=0;exitDy=0;" edge="1" parent="1" source="CVMzIMqjBqlr0pFYdlRC-17">
          <mxGeometry width="50" height="50" relative="1" as="geometry">
            <mxPoint x="540" y="300" as="sourcePoint" />
            <mxPoint x="550" y="220" as="targetPoint" />
          </mxGeometry>
        </mxCell>
        <mxCell id="CVMzIMqjBqlr0pFYdlRC-28" value="&lt;font style=&quot;font-size: 16px;&quot;&gt;I&lt;sub&gt;i&lt;/sub&gt;&lt;/font&gt;" style="text;html=1;strokeColor=none;fillColor=none;align=center;verticalAlign=middle;whiteSpace=wrap;rounded=0;" vertex="1" parent="1">
          <mxGeometry x="550" y="77.5" width="20" height="25" as="geometry" />
        </mxCell>
        <mxCell id="CVMzIMqjBqlr0pFYdlRC-29" value="&lt;font style=&quot;font-size: 16px;&quot;&gt;&lt;font style=&quot;font-size: 16px;&quot;&gt;I&lt;/font&gt;&lt;font style=&quot;font-size: 16px;&quot;&gt;&lt;sub&gt;j&lt;/sub&gt;&lt;/font&gt;&lt;/font&gt;" style="text;html=1;strokeColor=none;fillColor=none;align=center;verticalAlign=middle;whiteSpace=wrap;rounded=0;" vertex="1" parent="1">
          <mxGeometry x="600" y="77.5" width="20" height="25" as="geometry" />
        </mxCell>
        <mxCell id="CVMzIMqjBqlr0pFYdlRC-34" value="" style="edgeStyle=orthogonalEdgeStyle;rounded=0;orthogonalLoop=1;jettySize=auto;html=1;" edge="1" parent="1" source="CVMzIMqjBqlr0pFYdlRC-30" target="CVMzIMqjBqlr0pFYdlRC-33">
          <mxGeometry relative="1" as="geometry" />
        </mxCell>
        <mxCell id="CVMzIMqjBqlr0pFYdlRC-30" value="&lt;font style=&quot;font-size: 14px;&quot;&gt;Image Encoder&lt;/font&gt;" style="rounded=0;whiteSpace=wrap;html=1;fillColor=#d5e8d4;strokeColor=#82b366;" vertex="1" parent="1">
          <mxGeometry x="650" y="60" width="120" height="60" as="geometry" />
        </mxCell>
        <mxCell id="CVMzIMqjBqlr0pFYdlRC-31" value="" style="endArrow=classic;html=1;rounded=0;exitX=1;exitY=0.5;exitDx=0;exitDy=0;entryX=0;entryY=0.5;entryDx=0;entryDy=0;" edge="1" parent="1" source="CVMzIMqjBqlr0pFYdlRC-29" target="CVMzIMqjBqlr0pFYdlRC-30">
          <mxGeometry width="50" height="50" relative="1" as="geometry">
            <mxPoint x="530" y="380" as="sourcePoint" />
            <mxPoint x="580" y="330" as="targetPoint" />
          </mxGeometry>
        </mxCell>
        <mxCell id="CVMzIMqjBqlr0pFYdlRC-32" value="" style="endArrow=classic;startArrow=classic;html=1;rounded=0;entryX=0;entryY=0.5;entryDx=0;entryDy=0;exitX=1;exitY=0.5;exitDx=0;exitDy=0;" edge="1" parent="1" source="CVMzIMqjBqlr0pFYdlRC-28" target="CVMzIMqjBqlr0pFYdlRC-29">
          <mxGeometry width="50" height="50" relative="1" as="geometry">
            <mxPoint x="570" y="120" as="sourcePoint" />
            <mxPoint x="610" y="120" as="targetPoint" />
          </mxGeometry>
        </mxCell>
        <mxCell id="CVMzIMqjBqlr0pFYdlRC-33" value="Projection&lt;br&gt;head" style="shape=trapezoid;perimeter=trapezoidPerimeter;whiteSpace=wrap;html=1;fixedSize=1;direction=south;fillColor=#d5e8d4;strokeColor=#82b366;" vertex="1" parent="1">
          <mxGeometry x="810" y="40" width="60" height="100" as="geometry" />
        </mxCell>
        <mxCell id="CVMzIMqjBqlr0pFYdlRC-35" value="&lt;font style=&quot;font-size: 16px;&quot;&gt;T&lt;sub&gt;i&lt;/sub&gt;&lt;/font&gt;" style="text;html=1;strokeColor=none;fillColor=none;align=center;verticalAlign=middle;whiteSpace=wrap;rounded=0;" vertex="1" parent="1">
          <mxGeometry x="550" y="210" width="20" height="25" as="geometry" />
        </mxCell>
        <mxCell id="CVMzIMqjBqlr0pFYdlRC-41" value="" style="edgeStyle=orthogonalEdgeStyle;rounded=0;orthogonalLoop=1;jettySize=auto;html=1;" edge="1" parent="1" source="CVMzIMqjBqlr0pFYdlRC-36" target="CVMzIMqjBqlr0pFYdlRC-39">
          <mxGeometry relative="1" as="geometry" />
        </mxCell>
        <mxCell id="CVMzIMqjBqlr0pFYdlRC-36" value="&lt;font style=&quot;font-size: 16px;&quot;&gt;&lt;font style=&quot;font-size: 16px;&quot;&gt;T&lt;/font&gt;&lt;font style=&quot;font-size: 16px;&quot;&gt;&lt;sub&gt;j&lt;/sub&gt;&lt;/font&gt;&lt;/font&gt;" style="text;html=1;strokeColor=none;fillColor=none;align=center;verticalAlign=middle;whiteSpace=wrap;rounded=0;" vertex="1" parent="1">
          <mxGeometry x="600" y="210" width="20" height="25" as="geometry" />
        </mxCell>
        <mxCell id="CVMzIMqjBqlr0pFYdlRC-37" value="" style="endArrow=classic;startArrow=classic;html=1;rounded=0;entryX=0;entryY=0.5;entryDx=0;entryDy=0;exitX=1;exitY=0.5;exitDx=0;exitDy=0;" edge="1" parent="1" source="CVMzIMqjBqlr0pFYdlRC-35" target="CVMzIMqjBqlr0pFYdlRC-36">
          <mxGeometry width="50" height="50" relative="1" as="geometry">
            <mxPoint x="580" y="100" as="sourcePoint" />
            <mxPoint x="610" y="100" as="targetPoint" />
          </mxGeometry>
        </mxCell>
        <mxCell id="CVMzIMqjBqlr0pFYdlRC-38" value="" style="edgeStyle=orthogonalEdgeStyle;rounded=0;orthogonalLoop=1;jettySize=auto;html=1;" edge="1" parent="1" source="CVMzIMqjBqlr0pFYdlRC-39" target="CVMzIMqjBqlr0pFYdlRC-40">
          <mxGeometry relative="1" as="geometry" />
        </mxCell>
        <mxCell id="CVMzIMqjBqlr0pFYdlRC-39" value="&lt;font style=&quot;font-size: 14px;&quot;&gt;Text Encoder&lt;/font&gt;" style="rounded=0;whiteSpace=wrap;html=1;fillColor=#f8cecc;strokeColor=#b85450;" vertex="1" parent="1">
          <mxGeometry x="650" y="192.5" width="120" height="60" as="geometry" />
        </mxCell>
        <mxCell id="CVMzIMqjBqlr0pFYdlRC-40" value="Projection&lt;br&gt;head" style="shape=trapezoid;perimeter=trapezoidPerimeter;whiteSpace=wrap;html=1;fixedSize=1;direction=south;fillColor=#f8cecc;strokeColor=#b85450;" vertex="1" parent="1">
          <mxGeometry x="810" y="172.5" width="60" height="100" as="geometry" />
        </mxCell>
        <mxCell id="CVMzIMqjBqlr0pFYdlRC-42" value="&lt;font style=&quot;font-size: 16px;&quot;&gt;A&lt;sub&gt;i&lt;/sub&gt;&lt;/font&gt;" style="text;html=1;strokeColor=none;fillColor=none;align=center;verticalAlign=middle;whiteSpace=wrap;rounded=0;" vertex="1" parent="1">
          <mxGeometry x="910" y="78.75" width="20" height="25" as="geometry" />
        </mxCell>
        <mxCell id="CVMzIMqjBqlr0pFYdlRC-43" value="&lt;font style=&quot;font-size: 16px;&quot;&gt;A&lt;sub&gt;j&lt;/sub&gt;&lt;/font&gt;" style="text;html=1;strokeColor=none;fillColor=none;align=center;verticalAlign=middle;whiteSpace=wrap;rounded=0;" vertex="1" parent="1">
          <mxGeometry x="970" y="77.5" width="20" height="27.5" as="geometry" />
        </mxCell>
        <mxCell id="CVMzIMqjBqlr0pFYdlRC-44" value="&lt;font style=&quot;font-size: 16px;&quot;&gt;B&lt;sub&gt;i&lt;/sub&gt;&lt;/font&gt;" style="text;html=1;strokeColor=none;fillColor=none;align=center;verticalAlign=middle;whiteSpace=wrap;rounded=0;" vertex="1" parent="1">
          <mxGeometry x="910" y="210" width="20" height="25" as="geometry" />
        </mxCell>
        <mxCell id="CVMzIMqjBqlr0pFYdlRC-45" value="&lt;font style=&quot;font-size: 16px;&quot;&gt;B&lt;sub&gt;j&lt;/sub&gt;&lt;/font&gt;" style="text;html=1;strokeColor=none;fillColor=none;align=center;verticalAlign=middle;whiteSpace=wrap;rounded=0;" vertex="1" parent="1">
          <mxGeometry x="970" y="208.75" width="20" height="27.5" as="geometry" />
        </mxCell>
        <mxCell id="CVMzIMqjBqlr0pFYdlRC-46" value="" style="endArrow=classic;startArrow=classic;html=1;rounded=0;exitX=1;exitY=0.5;exitDx=0;exitDy=0;entryX=0;entryY=0.5;entryDx=0;entryDy=0;" edge="1" parent="1" source="CVMzIMqjBqlr0pFYdlRC-42" target="CVMzIMqjBqlr0pFYdlRC-43">
          <mxGeometry width="50" height="50" relative="1" as="geometry">
            <mxPoint x="1090" y="170" as="sourcePoint" />
            <mxPoint x="1140" y="120" as="targetPoint" />
          </mxGeometry>
        </mxCell>
        <mxCell id="CVMzIMqjBqlr0pFYdlRC-47" value="" style="endArrow=classic;startArrow=classic;html=1;rounded=0;exitX=1;exitY=0.5;exitDx=0;exitDy=0;entryX=0;entryY=0.5;entryDx=0;entryDy=0;" edge="1" parent="1" source="CVMzIMqjBqlr0pFYdlRC-44" target="CVMzIMqjBqlr0pFYdlRC-45">
          <mxGeometry width="50" height="50" relative="1" as="geometry">
            <mxPoint x="940" y="101" as="sourcePoint" />
            <mxPoint x="980" y="101" as="targetPoint" />
          </mxGeometry>
        </mxCell>
        <mxCell id="CVMzIMqjBqlr0pFYdlRC-48" value="" style="endArrow=classic;html=1;rounded=0;exitX=0.5;exitY=0;exitDx=0;exitDy=0;entryX=0;entryY=0.5;entryDx=0;entryDy=0;" edge="1" parent="1" source="CVMzIMqjBqlr0pFYdlRC-33" target="CVMzIMqjBqlr0pFYdlRC-42">
          <mxGeometry width="50" height="50" relative="1" as="geometry">
            <mxPoint x="1090" y="200" as="sourcePoint" />
            <mxPoint x="1140" y="150" as="targetPoint" />
          </mxGeometry>
        </mxCell>
        <mxCell id="CVMzIMqjBqlr0pFYdlRC-49" value="" style="endArrow=classic;html=1;rounded=0;exitX=0.5;exitY=0;exitDx=0;exitDy=0;entryX=0;entryY=0.5;entryDx=0;entryDy=0;" edge="1" parent="1" source="CVMzIMqjBqlr0pFYdlRC-40" target="CVMzIMqjBqlr0pFYdlRC-44">
          <mxGeometry width="50" height="50" relative="1" as="geometry">
            <mxPoint x="780" y="450" as="sourcePoint" />
            <mxPoint x="830" y="400" as="targetPoint" />
          </mxGeometry>
        </mxCell>
        <mxCell id="CVMzIMqjBqlr0pFYdlRC-51" value="&lt;font style=&quot;font-size: 16px;&quot;&gt;d&lt;sub&gt;A&lt;/sub&gt;&lt;/font&gt;" style="text;html=1;strokeColor=none;fillColor=none;align=center;verticalAlign=middle;whiteSpace=wrap;rounded=0;" vertex="1" parent="1">
          <mxGeometry x="932.5" y="97" width="35" height="23" as="geometry" />
        </mxCell>
        <mxCell id="CVMzIMqjBqlr0pFYdlRC-52" value="&lt;span style=&quot;font-size: 16px;&quot;&gt;d&lt;sub&gt;B&lt;/sub&gt;&lt;/span&gt;" style="text;html=1;strokeColor=none;fillColor=none;align=center;verticalAlign=middle;whiteSpace=wrap;rounded=0;" vertex="1" parent="1">
          <mxGeometry x="930" y="199.43" width="40" height="20" as="geometry" />
        </mxCell>
        <mxCell id="CVMzIMqjBqlr0pFYdlRC-53" value="" style="endArrow=classic;startArrow=classic;html=1;rounded=0;exitX=0.5;exitY=0;exitDx=0;exitDy=0;entryX=0.5;entryY=1;entryDx=0;entryDy=0;" edge="1" parent="1" source="CVMzIMqjBqlr0pFYdlRC-52" target="CVMzIMqjBqlr0pFYdlRC-51">
          <mxGeometry width="50" height="50" relative="1" as="geometry">
            <mxPoint x="1100" y="180" as="sourcePoint" />
            <mxPoint x="1150" y="130" as="targetPoint" />
          </mxGeometry>
        </mxCell>
        <mxCell id="CVMzIMqjBqlr0pFYdlRC-54" value="&lt;font style=&quot;font-size: 14px;&quot;&gt;Equal&lt;/font&gt;" style="text;html=1;strokeColor=none;fillColor=none;align=center;verticalAlign=middle;whiteSpace=wrap;rounded=0;" vertex="1" parent="1">
          <mxGeometry x="890" y="152.5" width="60" height="17.5" as="geometry" />
        </mxCell>
      </root>
    </mxGraphModel>
  </diagram>
</mxfile>
